<svg width="50" height="50" viewBox="0 0 50 50" fill="none" xmlns="http://www.w3.org/2000/svg">
<g id="Group 59">
<g id="Group">
<g id="Group_2">
<path id="Vector" d="M0 35.0527C0.234728 34.1138 0.339051 33.1488 0.665061 32.236C2.46464 27.2676 5.90731 24.1509 11.1104 23.1468C18.3218 21.7515 25.3506 26.4591 26.8242 33.7878C28.3108 41.1687 23.4206 48.367 16.0788 49.7623C8.84141 51.1316 1.82566 46.4501 0.286889 39.2257C0.182566 38.7432 0.208647 38.2346 0 37.7652C0 36.8654 0 35.9656 0 35.0527ZM13.549 47.8976C19.8736 47.8324 24.8811 42.9292 24.9855 36.6306C25.0898 30.1756 19.9649 25.0116 13.5751 24.9986C7.23744 24.9725 2.11255 30.1235 2.11255 36.4872C2.11255 42.7857 7.2244 47.8845 13.549 47.8976Z" fill="white"/>
<path id="Vector_2" d="M25.9765 0C26.8372 0.247768 27.7239 0.430334 28.5194 0.899789C30.632 2.13863 31.8969 3.95125 32.2359 6.40285C32.7576 10.1455 30.0973 13.562 26.7329 14.3836C22.5469 15.4007 18.3088 12.4666 17.7611 8.18939C17.2786 4.40766 19.9258 0.782425 23.7205 0.104323C23.7988 0.0912829 23.8901 0.091283 23.9292 0C24.6073 0 25.2854 0 25.9765 0ZM30.1755 7.27656C30.1625 4.36854 27.8413 2.07343 24.9724 2.09951C21.921 2.12559 19.7562 4.62935 19.8084 7.43304C19.8736 10.2107 22.2078 12.5058 25.0507 12.5058C27.8674 12.4927 30.1886 10.1324 30.1755 7.27656Z" fill="white"/>
<path id="Vector_3" d="M40.6079 16.6657C45.6284 16.6266 49.7883 20.6431 49.9839 25.6767C50.1926 30.8537 46.0849 35.3396 40.7644 35.4048C35.47 35.47 31.5057 31.3623 31.2449 26.5243C30.958 20.9821 35.4569 16.6136 40.6079 16.6657ZM47.8844 26.0288C47.9496 22.1427 44.6765 18.8044 40.7513 18.7522C36.6958 18.7001 33.4226 21.8819 33.3574 25.9505C33.2922 30.0191 36.5132 33.1358 40.2949 33.3053C44.3635 33.4879 47.8714 30.293 47.8844 26.0288Z" fill="white"/>
<path id="Vector_4" d="M3.1297 13.536C3.0645 10.9409 5.17705 8.35893 8.30675 8.31981C11.1756 8.28069 13.562 10.6801 13.562 13.549C13.562 16.457 11.2148 18.7521 8.25459 18.7521C5.42482 18.7521 3.0645 16.2614 3.1297 13.536ZM5.24225 13.4969C5.20313 15.2182 6.57238 16.6266 8.31979 16.6526C9.93681 16.6787 11.3582 15.3356 11.4365 13.7837C11.5408 11.8016 10.0281 10.5497 8.55452 10.4454C6.82014 10.315 5.22921 11.6973 5.24225 13.4969Z" fill="white"/>
<path id="Vector_5" d="M14.1358 45.798C13.9533 45.8111 13.7837 45.8241 13.6012 45.8241C12.9491 45.8111 12.5058 45.3677 12.5058 44.7679C12.5058 44.168 12.9622 43.7637 13.6142 43.7377C16.6787 43.5942 18.9086 42.1728 20.2387 39.4082C20.5387 38.7953 20.7082 38.1433 20.7995 37.4652C20.8908 36.8262 21.4515 36.3437 21.9992 36.4481C22.6512 36.5654 23.0163 37.1522 22.899 37.8303C22.4035 40.7384 20.9168 42.9683 18.4 44.507C17.096 45.3025 15.6746 45.7328 14.1358 45.798Z" fill="white"/>
<path id="Vector_6" d="M24.7898 3.12964C25.494 3.12964 25.8852 3.39045 26.0287 3.97727C26.133 4.39456 25.8722 4.91618 25.4419 5.09874C25.2071 5.19003 24.9463 5.22915 24.6855 5.26827C23.7075 5.39867 22.9903 6.16806 22.9381 7.17217C22.899 7.90243 22.4687 8.34581 21.8427 8.34581C21.2689 8.34581 20.8516 7.90244 20.8125 7.19825C20.7734 6.29846 21.1255 5.52908 21.6471 4.82489C22.4165 3.7947 23.6162 3.14268 24.7898 3.12964Z" fill="white"/>
<path id="Vector_7" d="M41.0252 19.8085C43.7897 19.952 46.3326 22.1688 46.8282 24.9204C46.9195 25.3898 46.9586 25.8854 46.776 26.3679C46.5674 26.9025 46.2283 27.1242 45.6937 27.059C45.1981 26.9938 44.8591 26.6808 44.7939 26.1201C44.7026 25.3507 44.5983 24.5813 44.181 23.8902C43.4116 22.6252 42.264 21.9993 40.8165 21.8689C40.008 21.7907 39.5125 21.3864 39.5516 20.7735C39.5907 20.1345 40.1123 19.7694 40.9209 19.8085C40.96 19.8085 40.9991 19.8085 41.0252 19.8085Z" fill="white"/>
</g>
</g>
</g>
</svg>
