<svg width="50" height="51" viewBox="0 0 50 51" fill="none" xmlns="http://www.w3.org/2000/svg">
<g id="Group">
<g id="Group_2">
<path id="Vector" d="M42.8484 0C44.8304 0 46.8124 0 48.8075 0C48.8857 0.143436 49.0422 0.143437 49.1596 0.221675C49.629 0.495508 49.968 0.912777 49.955 1.43436C49.9159 3.67719 50.1767 5.92001 49.7594 8.1498C49.4595 9.74064 48.8206 11.2141 47.8687 12.5311C47.3471 13.2483 46.343 13.4048 45.5998 12.9354C44.8434 12.4529 44.5827 11.488 45.013 10.6795C45.1564 10.4057 45.339 10.1579 45.5085 9.89712C46.669 7.96724 46.669 5.82874 46.6168 3.67719C46.6168 3.44248 46.4604 3.4164 46.2909 3.42944C45.2346 3.45551 44.1784 3.37728 43.1222 3.50767C40.8663 3.79455 39.0538 4.83772 37.6325 6.59808C35.833 8.80178 35.7418 11.4228 35.8591 14.0829C35.8722 14.3567 36.0286 14.3958 36.2503 14.3567C37.4369 14.135 38.6235 14.122 39.8232 14.2654C42.1051 14.5523 44.1263 15.439 45.8605 16.9385C47.0993 18.0078 48.2077 19.2335 49.3813 20.381C50.1767 21.1634 50.1767 22.1283 49.4073 22.9238C48.3642 23.98 47.334 25.0362 46.2517 26.0533C44.4392 27.7615 42.3007 28.7916 39.8232 29.1046C39.7189 29.1176 39.5624 29.0915 39.5102 29.2089C39.445 29.3523 39.6145 29.4175 39.6928 29.5088C39.758 29.587 39.8362 29.6392 39.9014 29.7174C40.8011 30.6041 40.8142 31.5299 39.9145 32.4297C39.0147 33.3294 38.115 34.2161 37.2283 35.1159C35.7157 36.6285 33.9292 37.6847 31.8559 38.2193C31.2822 38.3627 30.7084 38.467 30.1217 38.5844C30.1999 38.8191 30.3694 38.9234 30.5128 39.0538C31.4517 39.9927 31.4647 40.9055 30.5259 41.8443C29.6392 42.731 28.7525 43.6177 27.8658 44.5044C23.9669 48.3381 18.2686 49.0944 13.6265 46.3952C12.1921 45.5606 11.0707 44.3871 9.94927 43.2135C9.61024 42.8614 9.44073 42.8875 9.12777 43.2265C7.0675 45.3259 4.98116 47.3992 2.89481 49.4856C2.25586 50.1245 1.34309 50.1897 0.638944 49.6812C0.339032 49.4595 0.221675 49.1074 0 48.8336C0 48.4815 0 48.1164 0 47.7643C0.286873 47.4383 0.534626 47.0863 0.834539 46.7733C4.34221 43.2917 7.83684 39.7971 11.3315 36.2894C13.796 33.8119 14.4219 30.1086 12.9745 26.94C12.2443 25.3361 10.9533 24.2147 9.74064 23.015C9.55808 22.8325 9.46681 22.9498 9.34945 23.0672C8.69746 23.7192 8.00636 24.3451 7.38046 25.0362C6.20689 26.3402 5.54186 27.8919 5.35931 29.6261C5.18979 31.217 5.46362 32.7426 6.16777 34.2031C6.572 35.0376 6.16777 36.0286 5.33323 36.4068C4.48565 36.7849 3.59895 36.4459 3.16864 35.5853C2.3993 34.0205 1.98203 32.3645 1.96899 30.6302C1.94291 28.0092 2.69921 25.6099 4.29005 23.5105C5.50274 21.9067 7.02839 20.6027 8.46275 19.2074C9.12777 18.5555 10.0666 18.6467 10.7447 19.3118C10.9403 19.4943 11.1098 19.716 11.3967 19.8334C11.4488 19.6638 11.501 19.5334 11.5271 19.39C11.7879 17.4601 12.505 15.6998 13.6786 14.1611C14.9174 12.5311 16.4561 11.2011 17.9165 9.7928C18.4772 9.25817 19.2987 9.29729 19.9377 9.76672C20.1333 9.91016 20.2897 10.0927 20.4853 10.2492C20.5766 10.3274 20.6418 10.4839 20.7983 10.4187C20.9287 10.3665 20.8765 10.2231 20.8896 10.1188C21.2286 7.82381 22.0892 5.7505 23.667 4.02926C24.9449 2.63401 26.2619 1.26485 27.7224 0.0391189C28.0744 0.0391189 28.4395 0.0391189 28.7916 0.0391189C28.9872 0.156476 29.2089 0.247754 29.3523 0.40423C30.8388 1.91683 32.4949 3.27296 33.7467 5.02028C34.1509 5.58098 34.19 5.58098 34.5812 5.03332C36.159 2.79049 38.2584 1.27789 40.8924 0.508547C41.5314 0.273833 42.1834 0.156476 42.8484 0ZM14.7218 21.1112C14.787 22.35 15.0478 23.6018 15.6215 24.7884C16.3518 26.288 17.6166 27.3312 18.7511 28.4917C18.9336 28.6743 19.0249 28.5569 19.1422 28.4265C19.7551 27.8136 20.381 27.2269 20.9548 26.5879C23.1454 24.2016 23.667 20.5636 22.337 17.6166C21.5937 15.9736 20.2897 14.8392 19.064 13.6004C18.8684 13.4048 18.7771 13.5743 18.6728 13.6786C18.086 14.2524 17.4992 14.8 16.9385 15.3999C15.4911 16.9777 14.787 18.8945 14.7218 21.1112ZM38.2323 25.8707C40.1492 25.8186 41.9356 25.297 43.5264 23.993C44.3088 23.3541 44.9608 22.5847 45.7041 21.8936C45.8866 21.7241 45.8736 21.6328 45.7041 21.4633C45.1434 20.9156 44.6087 20.3549 44.048 19.8203C41.5705 17.4732 38.0237 16.8864 34.8942 18.2425C33.2381 18.9597 32.1037 20.2767 30.878 21.5024C30.6824 21.698 30.8258 21.8023 30.9562 21.9327C31.5039 22.4804 32.0515 23.0542 32.6122 23.5888C34.19 25.0883 36.0938 25.8055 38.2323 25.8707ZM28.8959 35.2463C30.6172 35.1941 32.221 34.7377 33.6424 33.7467C34.6595 33.0295 35.4549 32.0776 36.3546 31.23C36.5763 31.0214 36.4068 30.9171 36.2764 30.7997C35.7287 30.2521 35.1941 29.6653 34.6203 29.1567C32.0776 26.8878 29.1828 26.3402 25.962 27.4224C24.0843 28.0614 22.8194 29.5088 21.4894 30.8519C21.2938 31.0475 21.4372 31.1518 21.5676 31.2822C22.1153 31.8299 22.663 32.4036 23.2237 32.9382C24.8145 34.4639 26.7313 35.168 28.8959 35.2463ZM19.2335 36.2764C17.9948 36.2633 16.5604 36.6676 15.2173 37.476C14.0046 38.1932 13.131 39.2755 12.1269 40.2274C11.9052 40.436 12.0487 40.5534 12.1921 40.6968C12.7658 41.2575 13.3135 41.8313 13.9003 42.3659C16.5995 44.9087 20.72 45.3259 23.8887 43.37C25.1014 42.6267 25.9881 41.5444 27.0182 40.5925C27.2268 40.41 27.0573 40.3187 26.94 40.2144C26.3923 39.6667 25.8446 39.093 25.2839 38.5583C23.667 37.0588 21.7632 36.2894 19.2335 36.2764ZM24.0973 11.7879C24.1886 12.2834 24.2016 12.9223 24.3451 13.5613C24.8536 15.9084 26.3662 17.5253 28.1527 18.9727C28.3613 19.1422 28.4526 19.051 28.596 18.9206C29.2089 18.2947 29.8609 17.6948 30.4476 17.0429C32.6253 14.6305 33.0947 10.8881 31.6343 7.96724C30.878 6.45464 29.6261 5.39843 28.4917 4.22486C28.3222 4.0423 28.2179 4.14662 28.1005 4.27701C27.5007 4.87684 26.8878 5.45059 26.3141 6.07649C24.8406 7.64125 24.1886 9.53201 24.0973 11.7879Z" fill="white"/>
</g>
</g>
</svg>
