<?xml version="1.0" encoding="UTF-8"?>
<!DOCTYPE svg PUBLIC "-//W3C//DTD SVG 1.1//EN" "http://www.w3.org/Graphics/SVG/1.1/DTD/svg11.dtd">
<svg xmlns="http://www.w3.org/2000/svg" version="1.1" width="200px" height="208px" style="shape-rendering:geometricPrecision; text-rendering:geometricPrecision; image-rendering:optimizeQuality; fill-rule:evenodd; clip-rule:evenodd" xmlns:xlink="http://www.w3.org/1999/xlink">
<g><path style="opacity:0.946" fill="#fefffe" d="M 46.5,4.5 C 63.4385,2.77081 71.7719,10.4375 71.5,27.5C 90.1667,27.5 108.833,27.5 127.5,27.5C 127.21,10.2855 135.544,2.78554 152.5,5C 161.884,9.60307 165.551,17.1031 163.5,27.5C 170.175,27.3337 176.842,27.5004 183.5,28C 190.394,29.2262 195.227,33.0595 198,39.5C 198.5,51.4954 198.667,63.4954 198.5,75.5C 132.5,75.5 66.5,75.5 0.5,75.5C 0.333462,63.4954 0.500129,51.4954 1,39.5C 3.77301,33.0595 8.60634,29.2262 15.5,28C 22.1583,27.5004 28.825,27.3337 35.5,27.5C 33.5815,17.0073 37.2482,9.34065 46.5,4.5 Z M 51.5,16.5 C 57.5434,17.5524 59.8767,21.2191 58.5,27.5C 54.8333,27.5 51.1667,27.5 47.5,27.5C 46.9008,22.9492 48.2341,19.2826 51.5,16.5 Z M 144.5,16.5 C 146.582,16.472 148.416,17.1387 150,18.5C 151.149,21.3926 151.649,24.3926 151.5,27.5C 147.833,27.5 144.167,27.5 140.5,27.5C 139.656,22.8619 140.989,19.1953 144.5,16.5 Z M 36.5,29.5 C 39.8333,29.5 43.1667,29.5 46.5,29.5C 46.3338,35.8421 46.5005,42.1754 47,48.5C 49.194,51.1806 52.0273,52.6806 55.5,53C 59.327,55.9053 59.327,58.9053 55.5,62C 47.7101,63.2131 41.8768,60.3797 38,53.5C 36.5989,45.5852 36.0989,37.5852 36.5,29.5 Z M 129.5,29.5 C 132.833,29.5 136.167,29.5 139.5,29.5C 139.334,35.8421 139.5,42.1754 140,48.5C 141.889,51.6888 144.722,53.1888 148.5,53C 152.596,57.9862 151.43,61.1528 145,62.5C 137.756,61.9267 132.756,58.26 130,51.5C 129.5,44.1742 129.334,36.8409 129.5,29.5 Z"/></g>
<g><path style="opacity:0.961" fill="#fefffe" d="M 0.5,85.5 C 66.5,85.5 132.5,85.5 198.5,85.5C 198.667,120.835 198.5,156.168 198,191.5C 195.833,196.333 192.333,199.833 187.5,202C 128.833,202.667 70.1667,202.667 11.5,202C 6.66667,199.833 3.16667,196.333 1,191.5C 0.500015,156.168 0.333348,120.835 0.5,85.5 Z M 62.5,104.5 C 66.9017,104.228 71.2351,104.561 75.5,105.5C 78.113,108.371 78.113,111.205 75.5,114C 70.8333,114.667 66.1667,114.667 61.5,114C 58.6749,110.476 59.0082,107.31 62.5,104.5 Z M 93.5,104.5 C 97.5138,104.334 101.514,104.501 105.5,105C 108.791,107.332 109.291,110.165 107,113.5C 102.252,114.635 97.419,114.802 92.5,114C 89.6749,110.476 90.0082,107.31 93.5,104.5 Z M 124.5,104.5 C 128.514,104.334 132.514,104.501 136.5,105C 139.791,107.332 140.291,110.165 138,113.5C 133.252,114.635 128.419,114.802 123.5,114C 120.765,110.508 121.098,107.342 124.5,104.5 Z M 155.5,104.5 C 159.514,104.334 163.514,104.501 167.5,105C 170.791,107.332 171.291,110.165 169,113.5C 164.252,114.635 159.419,114.802 154.5,114C 151.765,110.508 152.098,107.342 155.5,104.5 Z M 32.5,127.5 C 36.6372,127.146 40.6372,127.646 44.5,129C 47.7906,135.423 45.6239,138.59 38,138.5C 32.9693,139.133 29.8027,137.133 28.5,132.5C 29.1267,130.213 30.46,128.546 32.5,127.5 Z M 63.5,127.5 C 67.6372,127.146 71.6372,127.646 75.5,129C 78.7906,135.423 76.6239,138.59 69,138.5C 63.9693,139.133 60.8027,137.133 59.5,132.5C 60.1267,130.213 61.46,128.546 63.5,127.5 Z M 94.5,127.5 C 98.6372,127.146 102.637,127.646 106.5,129C 109.703,135.676 107.37,138.843 99.5,138.5C 93.1167,139.268 90.2833,136.601 91,130.5C 92.1451,129.364 93.3117,128.364 94.5,127.5 Z M 125.5,127.5 C 129.637,127.146 133.637,127.646 137.5,129C 139.984,131.284 140.151,133.784 138,136.5C 132.397,139.467 127.063,139.134 122,135.5C 120.78,131.707 121.947,129.04 125.5,127.5 Z M 156.5,127.5 C 160.637,127.146 164.637,127.646 168.5,129C 170.984,131.284 171.151,133.784 169,136.5C 163.397,139.467 158.063,139.134 153,135.5C 151.78,131.707 152.947,129.04 156.5,127.5 Z M 33.5,150.5 C 37.3076,150.163 40.9743,150.663 44.5,152C 47.7033,158.676 45.37,161.843 37.5,161.5C 34.1392,161.888 31.3059,160.888 29,158.5C 28.2023,154.419 29.7023,151.753 33.5,150.5 Z M 63.5,150.5 C 67.6372,150.146 71.6372,150.646 75.5,152C 78.7033,158.676 76.37,161.843 68.5,161.5C 62.1167,162.268 59.2833,159.601 60,153.5C 61.1451,152.364 62.3117,151.364 63.5,150.5 Z M 94.5,150.5 C 98.6372,150.146 102.637,150.646 106.5,152C 109.703,158.676 107.37,161.843 99.5,161.5C 93.1167,162.268 90.2833,159.601 91,153.5C 92.1451,152.364 93.3117,151.364 94.5,150.5 Z M 125.5,150.5 C 129.637,150.146 133.637,150.646 137.5,152C 140.703,158.676 138.37,161.843 130.5,161.5C 124.117,162.268 121.283,159.601 122,153.5C 123.145,152.364 124.312,151.364 125.5,150.5 Z M 156.5,150.5 C 160.605,150.234 164.605,150.734 168.5,152C 171.647,158.724 169.314,161.891 161.5,161.5C 155.117,162.268 152.283,159.601 153,153.5C 154.145,152.364 155.312,151.364 156.5,150.5 Z M 30.5,174.5 C 35.1785,174.334 39.8452,174.501 44.5,175C 47.2994,178.339 46.9661,181.339 43.5,184C 39.5,184.667 35.5,184.667 31.5,184C 27.8465,181.209 27.5131,178.043 30.5,174.5 Z M 61.5,174.5 C 66.1785,174.334 70.8452,174.501 75.5,175C 78.2994,178.339 77.9661,181.339 74.5,184C 70.5,184.667 66.5,184.667 62.5,184C 58.8465,181.209 58.5131,178.043 61.5,174.5 Z M 92.5,174.5 C 97.1785,174.334 101.845,174.501 106.5,175C 109.405,178.374 109.072,181.374 105.5,184C 101.5,184.667 97.5,184.667 93.5,184C 89.8465,181.209 89.5131,178.043 92.5,174.5 Z M 123.5,174.5 C 128.179,174.334 132.845,174.501 137.5,175C 140.405,178.374 140.072,181.374 136.5,184C 132.5,184.667 128.5,184.667 124.5,184C 120.968,181.172 120.634,178.005 123.5,174.5 Z"/></g>
</svg>
