<svg width="44" height="50" viewBox="0 0 44 50" fill="none" xmlns="http://www.w3.org/2000/svg">
<g id="Group 56">
<g id="Group">
<g id="Group_2">
<path id="Vector" d="M34.93 0.605469C34.93 2.38336 34.9171 4.17414 34.9428 5.95203C34.9428 6.31277 34.8527 6.40295 34.4919 6.40295C26.0663 6.39007 17.6277 6.39007 9.20203 6.40295C8.80265 6.40295 8.6867 6.31277 8.69959 5.91338C8.72535 4.14837 8.71247 2.38336 8.71247 0.618352C10.5419 0.618352 12.3713 0.618352 14.2136 0.618352C13.6597 1.40423 14.1879 2.57661 15.1928 2.78274C16.4167 3.02753 17.6406 3.27231 18.916 3.15636C19.8436 3.06618 20.7712 3.09194 21.6988 3.01464C22.5234 2.95023 23.3608 2.83428 24.1724 2.61526C24.3914 2.55085 24.5718 2.52508 24.4301 2.17723C24.2755 1.77785 24.3399 1.36558 24.8295 1.14657C24.9712 1.08215 25.1 0.966201 25.2288 0.888901C25.3834 0.785835 25.2804 0.708535 25.216 0.618352C28.4368 0.605469 31.6834 0.605469 34.93 0.605469Z" fill="white"/>
<path id="Vector_2" d="M21.789 49.9872C14.7032 49.9872 7.6174 49.9872 0.531587 50.0001C0.106438 50.0001 0.00337219 49.8841 0.00337219 49.4719C0.0162555 43.0431 0.0162555 36.6143 0.00337219 30.1856C0.00337219 29.7604 0.0806725 29.6316 0.544471 29.6316C14.7161 29.6445 28.8877 29.6445 43.0593 29.6316C43.4974 29.6316 43.6133 29.7475 43.6133 30.1856C43.6004 36.6143 43.6004 43.0431 43.6133 49.4719C43.6133 49.8841 43.536 50.0001 43.098 50.0001C35.9993 49.9872 28.8877 49.9872 21.789 49.9872ZM16.0173 38.3665C15.9658 41.3683 18.3878 44.1768 21.8019 44.1897C25.2546 44.2026 27.638 41.3425 27.6251 38.3536C27.6123 35.2874 25.1644 32.5561 21.8019 32.5561C18.3749 32.5561 15.9529 35.3647 16.0173 38.3665ZM11.6112 39.7836C11.9848 39.7836 12.3456 39.7707 12.7192 39.7836C12.964 39.7965 13.0541 39.7063 13.0541 39.4487C13.0413 38.7658 13.0413 38.0701 13.0541 37.3873C13.067 37.0395 12.9124 36.9493 12.6032 36.9493C11.9462 36.9622 11.2891 36.9622 10.6321 36.9493C10.3487 36.9493 10.2327 37.0395 10.2327 37.3358C10.2456 38.0444 10.2456 38.7401 10.2198 39.4487C10.2198 39.7063 10.31 39.7836 10.5548 39.7836C10.9155 39.7707 11.2634 39.7836 11.6112 39.7836ZM32.0312 36.9493C31.6963 36.9493 31.3613 36.9622 31.0263 36.9493C30.7042 36.9364 30.5625 37.0266 30.5754 37.3744C30.6012 38.0573 30.5883 38.753 30.5754 39.4487C30.5754 39.6934 30.6398 39.7965 30.8975 39.7965C31.619 39.7836 32.3404 39.7965 33.0619 39.7965C33.3067 39.7965 33.4097 39.7063 33.3969 39.4487C33.384 39.075 33.3969 38.7143 33.3969 38.3407C33.3969 36.9622 33.3969 36.9622 32.0312 36.9493Z" fill="white"/>
<path id="Vector_3" d="M42.9691 20.9484C28.8362 20.9484 14.7805 20.9484 0.647537 20.9484C1.17575 20.0466 1.69108 19.2092 2.19353 18.3589C3.91989 15.4602 5.64625 12.5743 7.35973 9.67556C7.52721 9.39213 7.70758 9.28906 8.02966 9.28906C17.151 9.30195 26.2853 9.30195 35.4066 9.28906C35.8833 9.28906 36.141 9.44366 36.3858 9.84304C38.4729 13.3859 40.5857 16.9031 42.6857 20.4331C42.763 20.5748 42.8403 20.7294 42.9691 20.9484Z" fill="white"/>
<path id="Vector_4" d="M21.8663 23.8601C28.9263 23.8601 35.9735 23.8601 43.0207 23.8472C43.5102 23.8472 43.6519 23.976 43.6133 24.4527C43.5746 25.0968 43.5875 25.741 43.6133 26.3852C43.6262 26.6815 43.5231 26.7588 43.2397 26.7588C41.8998 26.7459 40.5728 26.7588 39.233 26.7588C26.3497 26.7588 13.4664 26.7588 0.570229 26.7717C0.0935475 26.7717 -0.0224023 26.6428 0.00336431 26.1919C0.0420142 25.522 0.0291307 24.8392 0.0162474 24.1693C0.0162474 23.9374 0.0806642 23.8472 0.312563 23.8729C0.428513 23.8858 0.531579 23.8729 0.647529 23.8729C7.72045 23.8472 14.7934 23.8472 21.8663 23.8601Z" fill="white"/>
<path id="Vector_5" d="M21.8019 41.3038C20.1915 41.3038 18.8387 39.9511 18.8387 38.3407C18.8516 36.7431 20.1915 35.4162 21.789 35.429C23.451 35.429 24.765 36.7303 24.765 38.3664C24.7779 39.9897 23.451 41.3038 21.8019 41.3038Z" fill="white"/>
</g>
</g>
<path id="Vector_6" d="M34.4146 3.3883H9.21492C8.93148 3.3883 8.69958 3.15641 8.69958 2.87297V0.515332C8.69958 0.231899 8.93148 0 9.21492 0H34.4146C34.6981 0 34.93 0.231899 34.93 0.515332V2.87297C34.93 3.15641 34.6981 3.3883 34.4146 3.3883Z" fill="white"/>
</g>
</svg>
