<?xml version="1.0" encoding="utf-8"?>
<!-- Generator: Adobe Illustrator 27.7.0, SVG Export Plug-In . SVG Version: 6.00 Build 0)  -->
<svg version="1.1" id="Camada_1" xmlns="http://www.w3.org/2000/svg" xmlns:xlink="http://www.w3.org/1999/xlink" x="0px" y="0px"
	 viewBox="0 0 500 500" style="enable-background:new 0 0 500 500;" xml:space="preserve">
<style type="text/css">
	.st0{fill:#FFFFFF;}
</style>
<g>
	<path class="st0" d="M176.9,435.4c-5.2-2.2-9.1-5.5-10.3-11.4c-0.6-2.8-0.5-5.3,0.9-7.9c8.7-17.2,16.1-34.8,19-54
		c1.7-11.2,0.2-22.3-2.9-33.1c-5.8-20.9-14.1-41-20.1-61.8c-10.1-35.2-13.5-71-10.8-107.5c1.6-21.7,4-43.2,8.3-64.5
		c1.6-7.8,3.3-15.7,6.8-23c1.7-3.7,4.1-5.5,8.6-5.5c49.7,0.2,99.3,0.2,149,0c4.6,0,7.1,1.8,8.8,5.7c3.6,7.9,5.5,16.4,7.1,24.8
		c5.5,29.6,9.1,59.5,9,89.7c-0.1,37.1-8,72.8-20.4,107.6c-4.7,13-9.3,26.1-12.6,39.5c-4.1,16.4-2,32.3,3.1,48
		c3.8,11.4,8.2,22.5,13.7,33.2c3.7,7.3,0.8,15.6-6.8,19.1c-0.7,0.3-1.7,0.2-2.1,1.1c-1.9,0-3.8,0-5.8,0c-0.4-0.2-0.8-0.6-1.2-0.6
		c-18.2-2.7-36.4-4.6-54.8-5.2c-19.2-0.6-38.4,0.2-57.5,2.3c-7.8,0.9-15.7,1.4-23.3,3.5C180.8,435.4,178.8,435.4,176.9,435.4z
		 M297.7,403.5c-2-6.2-4-11.9-5.6-17.8c-0.7-2.4-2-3.2-4.2-3.6c-17.3-3.1-34.7-4.3-52.3-2.8c-2.8,0.2-3.6,0-2.6-3.1
		c5.4-16.5,4.6-33-0.3-49.5c-4.5-15.4-10.2-30.4-15.2-45.7c-7.1-21.8-12.3-44.1-14.5-66.9c-2-19.9-1.9-39.8-0.2-59.7
		c0.2-2.6,1.2-2.8,3.3-2.8c14.4,0.1,28.8,0,43.2,0c8.2,0,12.1,2.9,14.2,10.9c0.6,2.3,0.9,4.7,1.3,7.1c1.7,11.8-1,23.1-3.9,34.4
		c-1.8,7.3-3.6,14.7-2.2,22.4c0.7,3.8,2.5,7,6.1,8.8c10.9,5.4,21.4-0.9,21.5-13.1c0.1-8.3-1.9-16.2-4.1-24c-3.2-11.8-4-23.6-1-35.5
		c2-7.9,6.1-10.9,14.2-10.9c7.2,0,14.4-0.1,21.6,0.1c2.6,0.1,3.2-0.7,2.9-3.2c-1.7-16.7-3.9-33.3-7.1-49.8c-0.5-2.8-1.5-3.8-4.6-3.8
		c-38.1,0.1-76.3,0.1-114.4,0c-3.3,0-4.2,1.3-4.7,4.1c-3.5,18.1-5.8,36.4-7.5,54.8c-3.4,35.8-0.8,71.1,9.2,105.8
		c5.8,20.1,13.8,39.6,19.5,59.8c4.4,15.6,6.7,31.4,4,47.6c-1.9,11.5-5,22.7-9.2,33.6c-0.9,2.2-0.8,3.1,2.1,2.8
		c25.1-2.5,50.3-3.2,75.4-1C287.6,402.7,292.5,403.1,297.7,403.5z"/>
</g>
</svg>
