<svg width="27" height="50" viewBox="0 0 27 50" fill="none" xmlns="http://www.w3.org/2000/svg">
<g id="Group">
<g id="Group_2">
<path id="Vector" d="M3.41361 50C2.59316 49.679 2.08187 49.1082 1.95107 48.2283C1.9154 47.9548 1.96296 47.6932 2.09376 47.4316C3.21147 45.2319 4.15083 42.9608 4.62646 40.5232C4.9475 38.8585 4.76914 37.2295 4.32919 35.6243C3.5563 32.7824 2.42669 30.0476 1.61813 27.2176C0.987931 25.0416 0.536087 22.83 0.286384 20.5707C0.0128999 18.0618 -0.0941145 15.5529 0.0961352 13.0321C0.238823 11.1534 0.417182 9.28656 0.666885 7.41974C0.916587 5.52913 1.24952 3.66231 1.76082 1.83115C1.90351 1.29608 2.08187 0.78478 2.42669 0.332937C2.59316 0.107015 2.78341 0 3.08068 0C9.81076 0.0118906 16.5527 0 23.2828 0C24.4124 0 24.6146 0.142687 24.9832 1.22473C25.4469 2.55648 25.7323 3.9239 25.9582 5.30321C26.3268 7.50297 26.5527 9.72651 26.7668 11.9501C26.9451 13.8763 27.0046 15.8145 26.9213 17.7408C26.743 21.7479 25.9582 25.648 24.6621 29.453C23.9844 31.4269 23.3185 33.4126 22.6764 35.4102C21.8322 38.0737 22.1294 40.6897 23.0688 43.2699C23.5563 44.6254 24.0438 45.9929 24.781 47.2295C25.328 48.1451 24.7097 49.5125 23.8298 49.8335C23.7347 49.8692 23.592 49.8573 23.5325 49.9762C23.2353 49.9762 22.9499 49.9762 22.6526 49.9762C22.2483 49.7979 21.8084 49.8097 21.3922 49.7503C19.347 49.453 17.3018 49.2747 15.2329 49.2033C12.3554 49.0963 9.47782 49.2628 6.62408 49.5957C5.85119 49.6908 5.05452 49.7146 4.29352 49.9762C3.99625 50 3.69899 50 3.41361 50ZM13.4136 3.88823C13.4136 3.87634 13.4136 3.87634 13.4136 3.88823C10.8096 3.87634 8.20553 3.88823 5.60149 3.87634C5.328 3.87634 5.19721 3.91201 5.12586 4.24495C4.53133 6.956 4.23407 9.70273 3.99625 12.4614C3.77033 15.1843 3.81789 17.9073 4.16272 20.6302C4.49566 23.1748 5.09019 25.6361 5.88686 28.0618C6.68353 30.4875 7.63478 32.8537 8.21742 35.3508C8.64548 37.1819 8.81195 39.025 8.46712 40.8918C8.19364 42.3781 7.80125 43.8169 7.27806 45.2319C7.14726 45.5648 7.20672 45.6718 7.56344 45.648C8.82384 45.5529 10.0961 45.4816 11.3565 45.3983C12.7002 45.3151 14.0557 45.3151 15.3993 45.3864C16.7073 45.4578 18.0272 45.5529 19.3351 45.6362C19.6562 45.6599 19.7275 45.5886 19.6086 45.2556C19.3589 44.5541 19.133 43.8407 18.9309 43.1272C18.8833 42.9608 18.8119 42.9013 18.6455 42.8656C17.9796 42.7348 17.3137 42.6397 16.636 42.5446C14.8999 42.3068 13.1758 42.2949 11.4398 42.4138C10.8452 42.4495 10.8334 42.4732 11.0236 41.8906C11.7133 39.7146 11.6062 37.5505 10.9879 35.3864C10.3577 33.1629 9.51349 31.0107 8.80006 28.8109C7.76558 25.6124 7.08781 22.3424 6.82622 19.0012C6.64786 16.6468 6.67164 14.2925 6.89756 11.9382C6.93323 11.6171 7.01647 11.5339 7.31373 11.5458C9.35892 11.5577 11.416 11.5577 13.4612 11.5577C13.6276 11.5577 13.7822 11.5933 13.9368 11.629C14.7691 11.8312 15.1615 12.7586 15.2923 13.7455C15.5183 15.3508 15.2329 16.8966 14.8405 18.4542C14.567 19.5244 14.2578 20.6183 14.5075 21.7598C14.6859 22.5446 15.2091 23.0321 16.0177 23.0916C17.1473 23.1748 17.7894 22.8419 18.0628 22.0214C18.2531 21.4744 18.2412 20.9156 18.1817 20.3448C18.0034 18.8704 17.4326 17.4673 17.3137 15.981C17.2186 14.8395 17.2186 13.6742 17.7061 12.5922C18.0034 11.9144 18.5266 11.5696 19.2757 11.5815C20.3339 11.5933 21.3922 11.5814 22.4505 11.5933C22.7002 11.5933 22.831 11.5815 22.7953 11.2485C22.5694 9.00119 22.2721 6.75386 21.8441 4.53032C21.7608 4.07848 21.5944 3.91201 21.1068 3.91201C18.5504 3.90012 15.982 3.88823 13.4136 3.88823Z" fill="white"/>
</g>
</g>
</svg>
