<svg width="50" height="50" viewBox="0 0 50 50" fill="none" xmlns="http://www.w3.org/2000/svg">
<g id="Group 64">
<g id="Group">
<g id="Group_2">
<path id="Vector" d="M49.9893 3.99735C49.7321 5.10118 48.9712 5.84063 48.1782 6.58009C45.1132 9.45218 42.0696 12.3457 39.026 15.2392C38.5331 15.7108 38.0079 16.043 37.2899 15.8608C37.1077 15.8179 37.022 15.9465 36.9256 16.043C34.9644 17.897 33.0032 19.7617 31.0421 21.605C30.817 21.8193 30.7634 21.9479 30.9885 22.2266C32.9604 24.6057 34.1928 27.3492 34.6322 30.3927C35.3395 35.2796 34.1928 39.7163 31.1171 43.5958C28.4057 47.0144 24.8478 49.1042 20.5503 49.7686C15.5456 50.551 11.0231 49.3185 7.04723 46.1357C5.92197 45.2354 4.96818 44.1638 4.00367 43.1135C3.75718 42.8456 3.54285 42.7277 3.13561 42.8349C1.99963 43.1457 0.88509 42.6098 0.327818 41.6025C-0.250887 40.5415 -0.0579852 39.3627 0.863656 38.4946C3.86435 35.6547 6.86504 32.8147 9.86574 29.9748C14.549 25.5488 19.2215 21.1227 23.9047 16.686C24.5155 16.1073 25.1478 15.6036 26.0588 15.6143C27.0233 15.625 27.7413 16.043 28.245 16.836C28.395 17.0825 28.4807 17.0611 28.6629 16.8896C30.2704 15.3678 31.878 13.8461 33.4962 12.335C33.6141 12.2278 33.6569 12.1314 33.6355 11.9599C33.5605 11.3919 33.7641 10.9097 34.1821 10.5131C37.5578 7.30883 40.9336 4.11524 44.3094 0.910925C44.7917 0.450104 45.4025 0.235769 46.0027 0C46.3885 0 46.785 0 47.1708 0C47.7495 0.225052 48.3496 0.39652 48.8426 0.82519C49.432 1.33959 49.7428 2.01475 50 2.73277C49.9893 3.15073 49.9893 3.5794 49.9893 3.99735ZM33.1854 32.6754C33.1211 30.1891 32.4781 27.6064 31.0956 25.2165C30.1847 23.6519 28.9523 22.3552 27.7199 21.0691C27.0983 20.4261 27.2912 20.469 26.7018 21.0263C21.6649 25.7845 16.628 30.5428 11.5911 35.3117C9.51208 37.2836 7.43303 39.2448 5.35398 41.2167C4.89316 41.656 4.89316 41.656 5.34326 42.1383C5.83623 42.6527 6.30777 43.1993 6.82218 43.6922C10.8945 47.6789 15.7492 49.1256 21.3005 47.9146C28.2128 46.4143 33.164 40.1021 33.1854 32.6754ZM2.53547 41.2595C2.78196 41.2488 3.00701 41.1309 3.21063 40.9487C4.40019 39.8128 5.60046 38.6875 6.79002 37.5622C12.6092 32.0538 18.4391 26.5454 24.2583 21.037C25.0514 20.2868 25.8444 19.5474 26.6267 18.7865C27.034 18.3792 27.0447 17.9077 26.6803 17.5326C26.3481 17.1897 25.8659 17.179 25.4586 17.5112C25.33 17.6184 25.2121 17.7255 25.0942 17.8434C17.7854 24.7557 10.4659 31.6787 3.15704 38.591C2.72837 38.9983 2.2997 39.3948 1.90318 39.8235C1.66741 40.07 1.58168 40.37 1.73171 40.713C1.88175 41.0666 2.14967 41.2274 2.53547 41.2595ZM48.3282 3.42936C48.3282 2.95783 48.1567 2.52916 47.8674 2.22909C47.1815 1.50035 46.1205 1.47891 45.3489 2.20765C43.87 3.60083 42.3911 5.00473 40.9229 6.39791C39.1546 8.08044 37.3864 9.75225 35.6074 11.4348C35.4252 11.6062 35.243 11.7241 35.5217 12.0028C36.1539 12.6351 36.7541 13.2995 37.3435 13.9747C37.5471 14.1997 37.6757 14.189 37.8901 13.9854C41.1801 10.8668 44.4809 7.74822 47.7816 4.64036C48.1353 4.2867 48.2853 3.85803 48.3282 3.42936ZM29.5953 20.6298C29.7239 20.5226 29.8418 20.4261 29.9382 20.3297C31.5779 18.7758 33.2176 17.2218 34.8572 15.6679C35.1573 15.3785 35.7038 15.1321 35.6931 14.7784C35.6824 14.4569 35.168 14.1676 34.9215 13.8246C34.675 13.5031 34.525 13.5996 34.2785 13.8353C32.6603 15.3893 31.0206 16.9218 29.3917 18.465C28.3307 19.4724 28.3307 19.4724 29.4024 20.4583C29.4667 20.5119 29.531 20.5655 29.5953 20.6298Z" fill="white"/>
<path id="Vector_2" d="M22.2543 43.6815C22.2758 43.8744 22.1579 44.078 21.9757 44.2602C21.5577 44.6674 21.1398 45.0747 20.7004 45.4712C20.3039 45.8248 19.8002 45.8248 19.4787 45.4819C19.1357 45.139 19.1465 44.6674 19.543 44.2709C19.9824 43.8315 20.4325 43.4136 20.8933 43.0063C21.1612 42.7705 21.4613 42.717 21.7935 42.8777C22.0936 43.0278 22.2543 43.2742 22.2543 43.6815Z" fill="white"/>
<path id="Vector_3" d="M16.9817 42.1598C17.0031 42.3956 16.9066 42.5992 16.7352 42.76C16.3172 43.1672 15.8993 43.5745 15.4706 43.971C15.0634 44.3461 14.5275 44.3461 14.206 44.0031C13.8631 43.6388 13.8952 43.1672 14.3239 42.7493C14.7526 42.3313 15.192 41.9134 15.6421 41.5168C15.91 41.2811 16.2208 41.2275 16.5423 41.399C16.8209 41.5704 17.0031 41.8062 16.9817 42.1598Z" fill="white"/>
<path id="Vector_4" d="M26.3481 39.7271C26.3588 39.9736 26.2624 40.1772 26.1016 40.3379C25.6623 40.7666 25.2229 41.206 24.7621 41.6132C24.3334 41.9883 23.8833 41.9669 23.5511 41.5918C23.2296 41.2382 23.2403 40.7988 23.6154 40.4237C24.044 39.9843 24.5048 39.5663 24.955 39.1484C25.2229 38.9019 25.5444 38.8805 25.8659 39.0091C26.1659 39.127 26.3267 39.3842 26.3481 39.7271Z" fill="white"/>
<path id="Vector_5" d="M11.7197 40.6058C11.7305 40.8844 11.6662 41.088 11.5054 41.238C11.0339 41.6881 10.573 42.1382 10.0908 42.5669C9.73714 42.8777 9.25488 42.8456 8.95482 42.524C8.63331 42.1918 8.61188 41.731 8.9441 41.3881C9.40492 40.9165 9.89789 40.4664 10.3909 40.027C10.6373 39.8127 10.9374 39.7698 11.2482 39.9199C11.559 40.0806 11.7197 40.3271 11.7197 40.6058Z" fill="white"/>
<path id="Vector_6" d="M25.0835 26.4597C25.0621 26.2347 25.18 26.0418 25.3515 25.881C25.8016 25.4524 26.2409 25.0237 26.6911 24.6164C27.034 24.3057 27.5377 24.3271 27.8377 24.6272C28.17 24.9594 28.1807 25.4416 27.827 25.7953C27.3876 26.2454 26.9268 26.6848 26.4553 27.1027C26.1981 27.3278 25.898 27.4135 25.5551 27.2528C25.2336 27.092 25.0621 26.8455 25.0835 26.4597Z" fill="white"/>
<path id="Vector_7" d="M21.8471 31.2072C21.4506 31.1858 21.2041 31.025 21.054 30.7249C20.904 30.4142 20.9254 30.1034 21.1612 29.8676C21.6542 29.3746 22.1471 28.8817 22.6723 28.4316C22.983 28.1636 23.4439 28.2172 23.7225 28.5066C24.0119 28.8066 24.1083 29.1817 23.8404 29.514C23.3581 30.1034 22.7901 30.6178 22.19 31.0786C22.0936 31.1643 21.9328 31.175 21.8471 31.2072Z" fill="white"/>
<path id="Vector_8" d="M14.9133 35.9868C15.2777 36.0082 15.5563 36.1154 15.7171 36.4262C15.8778 36.7477 15.8671 37.0799 15.6206 37.3264C15.1384 37.8194 14.6347 38.3124 14.1096 38.7625C13.7666 39.0518 13.3701 38.9875 13.0593 38.666C12.7485 38.3552 12.6628 37.948 12.9736 37.6158C13.4666 37.0799 14.0131 36.5977 14.549 36.1047C14.6454 36.0297 14.8169 36.019 14.9133 35.9868Z" fill="white"/>
<path id="Vector_9" d="M29.2738 30.532C29.2309 30.8106 29.1345 31.025 28.9523 31.2071C28.5236 31.6037 28.1057 32.0109 27.677 32.4074C27.2697 32.7718 26.7875 32.7611 26.466 32.4074C26.1338 32.0538 26.1552 31.5822 26.5517 31.1964C26.9911 30.7678 27.4412 30.3391 27.8913 29.9319C28.1592 29.6961 28.47 29.6639 28.7915 29.8247C29.1023 29.964 29.2309 30.2426 29.2738 30.532Z" fill="white"/>
<path id="Vector_10" d="M19.8966 32.8254C19.9073 33.2005 19.7787 33.4148 19.5858 33.6077C19.1786 34.0043 18.7714 34.4008 18.3534 34.7759C17.9355 35.151 17.4211 35.151 17.0996 34.7866C16.7781 34.4222 16.8102 33.9721 17.2067 33.5756C17.6461 33.1469 18.0962 32.7183 18.5463 32.311C18.7928 32.086 19.1036 32.0538 19.4144 32.1931C19.7144 32.3324 19.8752 32.5789 19.8966 32.8254Z" fill="white"/>
<path id="Vector_11" d="M21.0754 38.3231C21.0969 38.5695 20.9361 38.7732 20.7539 38.9553C20.3467 39.3519 19.9395 39.7484 19.5215 40.1235C19.1143 40.4986 18.6427 40.4986 18.3105 40.1449C17.9569 39.7698 17.9569 39.3411 18.3534 38.9446C18.7928 38.5052 19.2429 38.0873 19.693 37.6693C19.9609 37.4228 20.2824 37.3907 20.6039 37.5407C20.9147 37.6801 21.0754 37.9373 21.0754 38.3231Z" fill="white"/>
<path id="Vector_12" d="M30.4526 35.9011C30.4205 36.1583 30.3133 36.3727 30.1311 36.5441C29.7239 36.9299 29.3166 37.3372 28.8987 37.7123C28.4807 38.0873 27.9663 38.0873 27.6448 37.7444C27.3233 37.3908 27.3662 36.8978 27.7841 36.5013C28.2128 36.0833 28.6415 35.6654 29.0916 35.2688C29.3595 35.0331 29.6703 34.9902 29.9918 35.1617C30.2704 35.3224 30.4205 35.5689 30.4526 35.9011Z" fill="white"/>
<path id="Vector_13" d="M23.1331 36.5228C22.6616 36.5335 22.4151 36.3834 22.2543 36.0834C22.0936 35.7833 22.1043 35.4618 22.3293 35.226C22.8223 34.7116 23.3367 34.2187 23.8725 33.7578C24.1941 33.4792 24.5799 33.5435 24.8906 33.8221C25.2014 34.1008 25.2979 34.4866 25.0407 34.8295C24.5584 35.4404 23.969 35.9548 23.3689 36.437C23.2617 36.5228 23.1331 36.5228 23.1331 36.5228Z" fill="white"/>
</g>
</g>
</g>
</svg>
