<?xml version="1.0" encoding="UTF-8"?>
<!DOCTYPE svg PUBLIC "-//W3C//DTD SVG 1.1//EN" "http://www.w3.org/Graphics/SVG/1.1/DTD/svg11.dtd">
<svg xmlns="http://www.w3.org/2000/svg" version="1.1" width="200px" height="208px" style="shape-rendering:geometricPrecision; text-rendering:geometricPrecision; image-rendering:optimizeQuality; fill-rule:evenodd; clip-rule:evenodd" xmlns:xlink="http://www.w3.org/1999/xlink">
<g><path style="opacity:0.976" fill="#fefffe" d="M 11.5,11.5 C 39.1667,11.5 66.8333,11.5 94.5,11.5C 94.3338,17.8421 94.5005,24.1754 95,30.5C 97.1345,34.8608 100.134,35.5275 104,32.5C 104.5,25.5079 104.666,18.5079 104.5,11.5C 132.502,11.3334 160.502,11.5 188.5,12C 192.438,14.3601 195.605,17.5268 198,21.5C 198.667,63.8333 198.667,106.167 198,148.5C 195.237,154.266 190.737,157.766 184.5,159C 128.167,159.667 71.8333,159.667 15.5,159C 7.33333,157.5 2.5,152.667 1,144.5C 0.333333,104.833 0.333333,65.1667 1,25.5C 2.34337,19.1183 5.84337,14.4516 11.5,11.5 Z M 31.5,48.5 C 33.7848,49.2245 35.6181,50.5578 37,52.5C 37.5,71.8305 37.6666,91.1638 37.5,110.5C 42.1667,110.5 46.8333,110.5 51.5,110.5C 51.3334,97.1625 51.5001,83.8292 52,70.5C 55.7448,66.4339 59.0782,66.7673 62,71.5C 62.4999,84.4957 62.6666,97.4957 62.5,110.5C 67.1667,110.5 71.8333,110.5 76.5,110.5C 76.3337,103.159 76.5003,95.8258 77,88.5C 80,85.8333 83,85.8333 86,88.5C 86.6667,98.5 86.6667,108.5 86,118.5C 85.5,119 85,119.5 84.5,120C 75.2374,121.126 65.9041,121.626 56.5,121.5C 48.1667,121.333 39.8333,121.167 31.5,121C 28.9952,120.49 27.4952,118.99 27,116.5C 26.3333,95.5 26.3333,74.5 27,53.5C 27.7428,51.068 29.2428,49.4013 31.5,48.5 Z M 132.5,52.5 C 160.809,51.6419 173.976,65.3086 172,93.5C 164.097,113.536 149.597,121.036 128.5,116C 109.275,106.345 103.108,91.1787 110,70.5C 115.048,61.271 122.548,55.271 132.5,52.5 Z"/></g>
<g><path style="opacity:0.856" fill="#fefffe" d="M 131.5,63.5 C 132.822,63.33 133.989,63.6634 135,64.5C 135.667,70.5 135.667,76.5 135,82.5C 130.333,87.1667 125.667,91.8333 121,96.5C 114.369,82.2271 117.869,71.2271 131.5,63.5 Z"/></g>
<g><path style="opacity:0.88" fill="#fefffe" d="M 145.5,63.5 C 153.713,65.3785 159.046,70.3785 161.5,78.5C 156.208,79.4948 150.875,79.8282 145.5,79.5C 145.5,74.1667 145.5,68.8333 145.5,63.5 Z"/></g>
<g><path style="opacity:0.889" fill="#fefffe" d="M 141.5,90.5 C 148.2,90.17 154.866,90.5033 161.5,91.5C 154.982,106.235 143.982,110.902 128.5,105.5C 132.42,100.239 136.754,95.239 141.5,90.5 Z"/></g>
<g><path style="opacity:0.954" fill="#fefffe" d="M 72.5,169.5 C 90.8364,169.333 109.17,169.5 127.5,170C 128.531,174.409 129.198,178.909 129.5,183.5C 133.783,182.989 137.783,183.656 141.5,185.5C 144.293,188.968 143.96,192.134 140.5,195C 113.161,195.833 85.8272,195.667 58.5,194.5C 55.5009,190.328 56.1675,186.828 60.5,184C 63.4816,183.502 66.4816,183.335 69.5,183.5C 70.5034,178.805 71.5034,174.138 72.5,169.5 Z"/></g>
</svg>
