<svg xmlns="http://www.w3.org/2000/svg" width="49" height="65" viewBox="0 0 49 65" fill="none">
<path d="M8.16667 0C3.66224 0 0 3.64355 0 8.125V56.875C0 61.3564 3.66224 65 8.16667 65H40.8333C45.3378 65 49 61.3564 49 56.875V20.3125H32.6667C30.4081 20.3125 28.5833 18.4971 28.5833 16.25V0H8.16667ZM32.6667 0V16.25H49L32.6667 0ZM14.2917 32.5H34.7083C35.8313 32.5 36.75 33.4141 36.75 34.5312C36.75 35.6484 35.8313 36.5625 34.7083 36.5625H14.2917C13.1688 36.5625 12.25 35.6484 12.25 34.5312C12.25 33.4141 13.1688 32.5 14.2917 32.5ZM14.2917 40.625H34.7083C35.8313 40.625 36.75 41.5391 36.75 42.6562C36.75 43.7734 35.8313 44.6875 34.7083 44.6875H14.2917C13.1688 44.6875 12.25 43.7734 12.25 42.6562C12.25 41.5391 13.1688 40.625 14.2917 40.625ZM14.2917 48.75H34.7083C35.8313 48.75 36.75 49.6641 36.75 50.7812C36.75 51.8984 35.8313 52.8125 34.7083 52.8125H14.2917C13.1688 52.8125 12.25 51.8984 12.25 50.7812C12.25 49.6641 13.1688 48.75 14.2917 48.75Z" fill="white"/>
</svg>