<svg width="37" height="50" viewBox="0 0 37 50" fill="none" xmlns="http://www.w3.org/2000/svg">
<g id="Group">
<g id="Group_2">
<path id="Vector" d="M23.0481 0C23.035 1.11104 22.8259 2.19593 22.7082 3.28082C22.5644 4.67942 22.3684 6.07802 22.1984 7.47661C22.1592 7.79032 22.3945 7.69882 22.5514 7.72496C24.1329 7.89489 25.6361 8.30009 26.9955 9.16277C27.7798 9.65947 28.4464 10.2738 29.0084 11.0058C29.1784 11.2149 29.3614 11.3587 29.6228 11.4502C33.6094 12.9142 35.8969 15.7898 36.5243 19.9594C36.8641 22.1553 36.7465 24.3643 36.2628 26.5472C36.1844 26.8871 35.9753 26.7956 35.7923 26.7956C35.5309 26.7956 35.4394 26.874 35.4917 27.1354C36.106 29.8019 35.4394 32.2462 34.2368 34.5989C33.4003 36.2328 32.3154 37.6968 31.0214 39.0039C30.8384 39.1869 30.7077 39.2392 30.4985 39.0692C30.2632 38.8862 29.9888 38.7686 29.7796 38.5725C29.4267 38.2719 29.3091 38.4026 29.1522 38.7686C28.381 40.69 27.2831 42.4154 25.8975 43.9578C25.6753 44.2061 25.5315 44.2453 25.2571 44.0624C24.9172 43.814 24.5251 43.631 24.1852 43.3957C23.9107 43.1997 23.78 43.1997 23.6232 43.5526C22.5121 46.0622 20.8129 48.1144 18.6954 49.8397C18.4209 50.0619 18.2902 50.0489 18.0157 49.8267C15.8721 48.0882 14.1598 45.9969 13.0487 43.448C12.9311 43.1866 12.8135 43.2127 12.6043 43.3434C12.2253 43.5918 11.8201 43.8009 11.441 44.0624C11.1665 44.2584 11.0097 44.1931 10.8005 43.9578C9.40193 42.3893 8.29089 40.6377 7.50663 38.6771C7.37592 38.3634 7.31057 38.3111 7.02301 38.5202C6.67009 38.7686 6.29103 39.2261 5.92504 39.1607C5.5852 39.1084 5.3107 38.6248 5.03621 38.298C3.1932 36.1936 1.80767 33.867 1.20641 31.109C0.918846 29.8019 0.905776 28.4948 1.19334 27.2008C1.25869 26.874 1.19334 26.7694 0.879633 26.8086C0.605142 26.8348 0.500575 26.7563 0.43522 26.4557C0.016948 24.6519 -0.0876204 22.822 0.0692316 20.979C0.343723 17.855 1.41555 15.097 4.0036 13.1364C4.89243 12.4567 5.85969 11.9338 6.90537 11.5417C7.206 11.4371 7.42821 11.2672 7.62427 11.0058C9.08822 9.1497 11.0489 8.18245 13.3624 7.8426C13.4801 7.82953 13.5846 7.80339 13.6892 7.77725C13.9506 7.69882 14.3558 7.89489 14.4473 7.63347C14.5519 7.35897 14.4212 7.00606 14.3951 6.67928C14.1598 4.45721 13.8069 2.24821 13.65 0.0130708C16.787 -1.99642e-07 19.9241 0 23.0481 0ZM21.5449 28.7954C21.571 28.0373 21.5187 27.9066 20.9175 27.4622C20.0679 26.8217 19.2705 26.1289 18.6301 25.2793C18.4079 24.9918 18.2771 24.9918 18.068 25.2663C17.4145 26.1028 16.6563 26.8609 15.7675 27.436C15.2447 27.7628 15.114 28.2072 15.127 28.7301C15.1401 29.1353 15.1793 29.5405 15.2577 29.9326C15.676 31.9586 16.774 33.5925 18.1072 35.1087C18.2771 35.3048 18.3817 35.344 18.5516 35.1218C18.8131 34.7819 19.1006 34.4813 19.362 34.1415C20.5776 32.5729 21.4795 30.8476 21.5449 28.7954ZM19.6757 17.1492C19.6235 17.4759 19.5842 17.6851 19.5712 17.8942C19.4274 19.5542 19.532 21.175 20.4077 22.6521C21.6102 24.665 23.5055 25.7891 25.5969 26.691C25.8191 26.7825 25.8845 26.691 25.9367 26.508C26.0282 26.1289 26.159 25.7629 26.2374 25.3839C26.6034 23.7369 26.7602 22.09 26.3027 20.43C26.2243 20.1555 26.0936 20.0771 25.8322 20.0509C24.3029 19.9071 22.8389 19.5019 21.5187 18.6915C20.8521 18.2863 20.277 17.7635 19.6757 17.1492ZM16.591 17.6197C16.4864 17.672 16.4341 17.6851 16.408 17.7112C14.931 19.0967 13.1272 19.7764 11.1534 20.0248C10.6829 20.0901 10.4345 20.1816 10.33 20.6783C9.92477 22.652 10.1993 24.5735 10.7613 26.4819C10.8397 26.7563 10.9704 26.7694 11.1796 26.6648C11.5064 26.508 11.8331 26.3773 12.1468 26.2074C13.8984 25.3055 15.4538 24.1944 16.4211 22.4168C16.6563 21.9724 16.8655 21.541 16.6955 20.992C16.591 20.626 16.591 20.2208 16.5648 19.8418C16.5256 19.1098 16.604 18.404 16.591 17.6197ZM9.49343 17.1753C10.16 17.1361 10.8136 17.0969 11.4802 16.9792C14.7088 16.3518 15.9505 13.8683 16.6041 11.0581C16.6694 10.7574 16.5387 10.6659 16.2381 10.6659C15.3884 10.6659 14.5519 10.6267 13.7154 10.7705C12.1599 11.045 10.8136 11.6724 9.84634 12.9795C9.16665 13.9075 8.73531 14.9532 8.43467 16.0643C8.14711 17.123 8.14711 17.1099 9.19279 17.1622C9.29736 17.1622 9.38886 17.1753 9.49343 17.1753ZM27.0739 17.1361C27.4268 17.1361 27.7928 17.1361 28.1457 17.1361C28.381 17.1361 28.4725 17.0707 28.3941 16.8224C28.2372 16.2865 28.1327 15.7244 27.9366 15.1885C27.3223 13.4631 26.3812 12.0123 24.6166 11.2541C23.218 10.6529 21.754 10.6267 20.2639 10.6659C19.9764 10.679 19.9894 10.8489 20.0417 11.0319C20.1332 11.411 20.2116 11.79 20.3293 12.156C20.826 13.7115 21.5318 15.1493 22.9435 16.0904C24.1852 16.9139 25.5969 17.1492 27.0739 17.1361ZM27.1654 34.3898C27.1262 32.6775 26.4988 31.2005 25.4531 29.9065C25.244 29.632 24.8649 29.4882 24.5512 29.5274C24.3682 29.5535 24.4467 29.9326 24.4074 30.1417C24.3944 30.2202 24.3682 30.2986 24.3552 30.377C23.9761 32.4945 22.9696 34.3114 21.6887 35.9845C21.4795 36.259 21.4534 36.455 21.6364 36.7557C22.3553 37.932 23.2703 38.9385 24.329 39.8273C24.9826 40.3633 24.9826 40.3633 25.427 39.6444C26.4204 38.0235 27.0739 36.2851 27.1654 34.3898ZM12.1991 29.4751C11.4671 29.6973 11.3887 29.7104 11.2319 29.9065C10.2123 31.2005 9.53264 32.6514 9.55878 34.3245C9.58492 36.4681 10.4476 38.3503 11.5848 40.128C11.6763 40.2848 11.7678 40.3371 11.9246 40.2064C13.2056 39.1869 14.3297 38.0235 15.1532 36.5857C15.2708 36.3897 15.2185 36.259 15.1009 36.1021C14.8395 35.7623 14.5911 35.4224 14.3558 35.0695C13.2056 33.3964 12.4213 31.5665 12.1991 29.4751ZM17.4929 38.6379C17.336 38.651 17.3099 38.7555 17.2576 38.834C16.7348 39.5659 16.1988 40.2848 15.5453 40.9122C15.3362 41.1083 15.3884 41.3044 15.4669 41.5396C16.0028 43.2127 16.9831 44.6244 18.1334 45.9315C18.2902 46.1145 18.3948 46.1276 18.5516 45.9446C19.7411 44.6113 20.7345 43.1474 21.2704 41.422C21.3358 41.2129 21.2965 41.056 21.1266 40.8992C20.4992 40.2718 19.9502 39.5921 19.4666 38.8601C19.3228 38.6379 19.2052 38.6117 19.0091 38.7947C18.9045 38.8993 18.7608 38.9647 18.6693 39.0692C18.434 39.3568 18.2249 39.3045 17.9896 39.0562C17.8458 38.8862 17.6497 38.7555 17.4929 38.6379ZM3.95132 29.1222C3.96439 29.4098 3.96439 29.7104 4.0036 29.998C4.2781 31.8148 5.06236 33.4226 6.12111 34.9126C6.2126 35.0434 6.26489 35.2525 6.46095 35.2133C6.7093 35.161 6.63088 34.9257 6.61781 34.7558C6.51324 32.6514 7.14064 30.7561 8.26475 29.0046C8.36932 28.8477 8.4216 28.717 8.34318 28.5079C8.02947 27.6713 7.74191 26.8348 7.58506 25.9459C7.53277 25.6322 7.37592 25.6192 7.1145 25.7237C6.38253 26.0244 5.61134 26.2204 4.82708 26.3904C4.5918 26.4426 4.5003 26.5341 4.42188 26.7302C4.12124 27.5145 3.92518 28.2987 3.95132 29.1222ZM30.0933 34.1807C30.0933 34.3898 30.0933 34.5989 30.0933 34.8212C30.0933 34.9649 30.0672 35.1349 30.2371 35.2002C30.4332 35.2786 30.4855 35.0826 30.5639 34.978C31.2305 34.0238 31.8056 33.0304 32.2108 31.9455C32.8121 30.2855 32.9951 28.6124 32.3808 26.9132C32.2631 26.5864 32.1063 26.4165 31.7533 26.3642C31.0344 26.2335 30.3286 26.0374 29.662 25.7499C29.296 25.593 29.2045 25.7499 29.1391 26.0636C28.9823 26.8348 28.7601 27.606 28.4595 28.3379C28.3287 28.6386 28.381 28.8738 28.5509 29.1483C29.4921 30.6776 30.0803 32.3507 30.0933 34.1807ZM31.2697 15.829C31.2697 15.9728 31.2566 16.0512 31.2697 16.1296C31.5181 17.123 31.5442 18.1556 31.6357 19.1752C31.6618 19.4627 31.5965 19.5804 31.3089 19.6326C30.773 19.7241 30.2371 19.8941 29.7012 19.9594C29.3221 19.9986 29.2699 20.1816 29.3352 20.4823C29.4659 21.0312 29.5443 21.5933 29.5051 22.1684C29.4921 22.4168 29.5836 22.5344 29.8058 22.639C30.956 23.1749 32.1847 23.4755 33.4264 23.6847C33.6617 23.7239 33.7009 23.6324 33.714 23.4232C33.7794 21.7371 33.6879 20.0771 33.0997 18.4824C32.7337 17.4629 32.1847 16.561 31.2697 15.829ZM5.34992 15.9597C4.85322 16.2342 4.5918 16.6394 4.34345 17.0184C3.06249 18.9922 2.90564 21.2142 2.98407 23.4755C2.99714 23.75 3.18013 23.6977 3.32391 23.6716C4.53951 23.4494 5.72898 23.1618 6.85308 22.6521C7.10143 22.5475 7.206 22.4037 7.19293 22.1423C7.16679 21.5672 7.23214 21.0051 7.37592 20.4561C7.46742 20.1163 7.32364 20.0117 6.99686 19.9594C6.42174 19.8679 5.85969 19.7241 5.29763 19.6065C5.11464 19.5673 4.997 19.515 5.02314 19.2928C5.10157 18.7307 5.01007 18.1556 5.12771 17.5936C5.21921 17.0707 5.27149 16.5479 5.34992 15.9597ZM18.3686 2.94098C18.0811 2.94098 17.7804 2.96712 17.4929 2.9279C17.0223 2.87562 16.9439 3.08476 16.9962 3.48996C17.1661 4.70556 17.3099 5.93424 17.4537 7.14984C17.5321 7.77725 17.8066 8.0256 18.434 7.88181C18.7346 7.81646 19.1921 7.98638 19.2444 7.35897C19.349 6.05187 19.545 4.75784 19.7149 3.45074C19.7672 3.05861 19.6757 2.86255 19.2444 2.91483C18.9568 2.96712 18.6562 2.94098 18.3686 2.94098Z" fill="white"/>
</g>
</g>
</svg>
