<svg width="14" height="50" viewBox="0 0 14 50" fill="none" xmlns="http://www.w3.org/2000/svg">
<g id="Group 57">
<g id="Group">
<g id="Group_2">
<path id="Vector" d="M0.0149681 36.5386C0.0149681 33.156 9.13301e-07 29.7884 0.0149681 26.4058C0.0299353 23.7117 0.583719 21.1374 1.85593 18.7426C2.15527 18.1739 2.63422 17.7099 2.81383 17.0514C3.09821 16.0336 3.11317 15.0009 3.23291 13.9681C3.45742 12.0673 3.65199 10.1665 3.84656 8.26562C4.0112 6.66413 4.19081 5.04768 4.35545 3.44619C4.41532 2.95228 4.46022 2.44339 4.55002 1.94947C4.59492 1.68007 4.56499 1.50046 4.23571 1.53039C3.84656 1.54536 3.86153 1.29092 3.95133 1.05144C4.14591 0.54256 4.53505 0.198315 5.05891 0.123479C6.30118 -0.0411597 7.55843 -0.0411597 8.78573 0.123479C9.35449 0.198315 9.8035 0.542559 10.013 1.14125C10.1028 1.39569 10.0729 1.56033 9.7586 1.51543C9.36945 1.45556 9.36945 1.68007 9.39938 1.94947C9.57899 3.55096 9.7586 5.16742 9.92324 6.7689C10.0879 8.37039 10.2375 9.98685 10.4022 11.6033C10.5818 13.2497 10.7764 14.8811 10.956 16.5275C11.0158 17.0364 11.2254 17.5004 11.5247 17.9045C12.7371 19.6407 13.3058 21.6014 13.6501 23.6519C13.8895 25.0289 13.8746 26.4358 13.8746 27.8277C13.8746 34.3235 13.8746 40.8192 13.8746 47.315C13.8746 49.0063 13.0065 49.9642 11.3302 49.9791C8.35169 50.0091 5.35825 50.0091 2.36481 49.9642C0.823195 49.9492 0 49.0362 0 47.4647C0 43.8276 0.0149681 40.1756 0.0149681 36.5386ZM5.68753 34.3684C5.68753 32.9315 5.8372 31.4947 5.64262 30.0578C5.61269 29.8034 5.58276 29.534 5.43309 29.3095C5.23851 29.0101 5.07387 28.9503 4.7895 29.2646C4.0112 30.1327 3.44245 31.0906 3.24788 32.243C3.15807 32.722 2.9186 33.1111 2.43965 33.3057C2.17024 33.4254 2.0056 33.6649 1.9607 33.9643C1.88587 34.518 1.81103 35.0718 1.78109 35.6256C1.75116 35.9998 1.90083 36.359 2.27501 36.4937C2.76893 36.6584 2.9635 37.0026 3.11317 37.4516C3.21794 37.8108 3.42748 38.1251 3.66696 38.4245C4.0561 38.9184 4.47519 39.3824 4.86433 39.8763C5.10381 40.1756 5.16367 39.9362 5.22354 39.7566C5.37322 39.2177 5.52289 38.6789 5.55282 38.1102C5.56779 36.8679 5.62766 35.6256 5.68753 34.3684Z" fill="white"/>
</g>
</g>
<path id="Vector_2" d="M7.36387 27.4236H0.718445V41.4927H7.36387V27.4236Z" fill="white"/>
</g>
</svg>
