<?xml version="1.0" encoding="utf-8"?>
<!-- Generator: Adobe Illustrator 27.7.0, SVG Export Plug-In . SVG Version: 6.00 Build 0)  -->
<svg version="1.1" id="Camada_1" xmlns="http://www.w3.org/2000/svg" xmlns:xlink="http://www.w3.org/1999/xlink" x="0px" y="0px"
	 viewBox="0 0 500 500" style="enable-background:new 0 0 500 500;" xml:space="preserve">
<style type="text/css">
	.st0{fill:var(--default-white);}
</style>
<g>
	<path class="st0" d="M13.9,274.8c3-11.2,10.4-19.3,18.4-27.3C88,192,143.6,136.2,199.3,80.6c10.2-10.2,22.5-15.6,37.1-15.3
		c7.4,0.1,14.8,0,22.1,0.1c22.8,0.3,45.7-0.1,68.5,1.2c10.1,0.6,20.5-1.1,30.4,3.2c11.8,5.2,23.6,18.7,23.5,32.4
		c0,3.5,2.1,4.5,4.5,5.5c10.1,4.4,20.6,8,30.2,13.2c11.3,6.1,22,13.2,32.6,20.5c11.5,7.9,21,17.9,28.7,29.5c5.4,8.1,9,17.1,9.1,26.8
		c0.2,14.9-7.3,25.7-20.2,32.7c-8.8,4.8-18.4,6.9-28.4,7.5c-3.3,0.2-6.6,0.9-9.9,0.9c-15.1-0.2-29.9-3-44.4-6.7
		c-2.8-0.7-3.6-0.5-5.1,2.2c-3,5.3-6.5,10.7-10.8,15C309.8,307,252,364.7,194.3,422.4c-9.3,9.3-20.6,13.7-33.7,11.9
		c-8.7-1.2-15.8-6.1-22-12.2c-37.8-37.7-75.5-75.4-113.2-113.1c-5.7-5.7-9-12.8-11.5-20.3C13.9,284,13.9,279.4,13.9,274.8z
		 M381.8,139.8c0,14,0,27.4,0,41.2c-19-6.4-36.5-14.9-52.5-26c-1-0.7-1.6-2.6-1.6-3.9c-0.2-7.6-2.1-14.2-6.9-20.4
		c-7.8-10-20.4-12.4-30.6-10.2c-14.7,3.1-25.5,20.4-21.7,35.6c2.9,11.7,14.6,22.7,27.1,22.8c8.2,0.1,15.3-2,21.5-7.4
		c1.9-1.7,3.7-2.3,6.6-0.3c12.6,8.8,26.1,15.9,40.3,21.7c14.8,6.1,30,10.7,45.7,13.4c11.9,2,23.9,1.9,35.7-0.9
		c9.2-2.1,11.7-7.1,7.8-14.2c-5.6-10.2-13.6-18.2-22.7-25c-13.6-10.2-28.4-18.5-44-25.3C385.2,140.5,383.8,140.3,381.8,139.8z"/>
</g>
</svg>
