<svg width="29" height="50" viewBox="0 0 29 50" fill="none" xmlns="http://www.w3.org/2000/svg">
<g id="Group 58">
<g id="Group">
<g id="Group_2">
<path id="Vector" d="M14.0531 12.2815C18.5324 12.2815 22.997 12.2815 27.4763 12.2668C27.9154 12.2668 28.0911 12.3254 28.0911 12.8524C28.0765 19.1175 28.0765 25.3827 28.0911 31.6332C28.0911 31.9991 27.9594 32.2334 27.6959 32.4676C25.3538 34.4876 22.6018 35.6148 19.6302 36.2589C16.8343 36.8737 13.9945 36.9761 11.1547 36.6834C7.56833 36.3028 4.20154 35.2635 1.21535 33.1263C0.395611 32.5261 -0.0142596 31.9113 0.000378649 30.8135C0.0735697 24.8264 0.0442942 18.8394 0.0150177 12.8524C0.0150177 12.3986 0.117486 12.2815 0.57127 12.2815C5.0652 12.2815 9.55913 12.2815 14.0531 12.2815ZM14.0384 19.2932C11.1254 19.2932 8.75403 21.6499 8.79794 24.5922C8.84186 27.5491 11.0961 29.7888 14.0238 29.7888C17.0246 29.7888 19.2935 27.5345 19.2935 24.519C19.2935 21.3864 16.805 19.3078 14.0384 19.2932ZM1.7716 26.2902C1.7716 27.6955 1.7716 29.1008 1.7716 30.5061C1.7716 30.872 1.85943 31.194 2.18147 31.399C2.4596 31.5746 2.75236 31.6039 3.05977 31.4429C3.44036 31.2233 3.52819 30.872 3.52819 30.4621C3.52819 27.6955 3.52819 24.9289 3.52819 22.1476C3.52819 21.4743 3.19151 21.0498 2.66453 21.0351C2.1522 21.0205 1.78624 21.4743 1.78624 22.133C1.7716 23.5236 1.7716 24.9143 1.7716 26.2902ZM1.7716 16.5998C1.7716 17.1706 1.75696 17.7269 1.7716 18.2978C1.78624 18.8687 2.1522 19.2932 2.6499 19.2932C3.14759 19.2932 3.52819 18.8833 3.52819 18.3124C3.54283 17.2146 3.54283 16.1313 3.52819 15.0335C3.52819 14.4626 3.14759 14.0527 2.6499 14.0381C2.16683 14.0234 1.78624 14.4479 1.7716 15.0335C1.7716 15.5458 1.7716 16.0728 1.7716 16.5998Z" fill="white"/>
<path id="Vector_2" d="M26.5834 10.5101C18.1957 10.5101 9.95437 10.5101 1.71306 10.5101C1.65451 10.3637 1.77161 10.3052 1.84481 10.232C3.01586 9.22197 4.20156 8.22657 5.37261 7.20189C5.53363 7.05551 5.69465 7.0116 5.91423 7.0116C11.3304 7.0116 16.7611 7.0116 22.1773 7.0116C22.3529 7.0116 22.5286 7.02623 22.675 7.15798C23.9485 8.25584 25.222 9.33907 26.5834 10.5101Z" fill="white"/>
<path id="Vector_3" d="M0.0296631 34.5022C0.351704 34.5754 0.542 34.7803 0.761573 34.9267C1.59595 35.483 2.4596 35.9953 3.38181 36.3905C3.68921 36.5223 3.82096 36.654 3.76241 37.0346C3.49892 38.718 3.27934 40.416 3.04513 42.0994C2.76701 44.017 2.50352 45.9346 2.22539 47.8669C2.13756 48.4378 2.06437 49.0233 1.99118 49.5942C1.96191 49.843 1.87408 49.9601 1.58131 49.9748C0.0443 50.048 0.0443 50.0626 0.0443 48.5256C0.0443 44.1488 0.0443 39.772 0.0443 35.3951C0.0296617 35.1024 0.0296631 34.8242 0.0296631 34.5022Z" fill="white"/>
<path id="Vector_4" d="M28.0765 34.3998C28.0765 35.7611 28.0765 37.0054 28.0765 38.2496C28.0765 41.9677 28.0618 45.7005 28.0911 49.4186C28.0911 49.8724 27.974 49.9895 27.5202 49.9895C26.1442 49.9602 26.1735 49.9748 25.9978 48.6135C25.749 46.6666 25.4416 44.7344 25.1635 42.7875C24.8853 40.8552 24.6218 38.9083 24.3584 36.9615C24.3291 36.7858 24.2705 36.6101 24.5047 36.5077C25.7343 35.9661 26.8908 35.2781 28.0765 34.3998Z" fill="white"/>
<path id="Vector_5" d="M21.8845 37.4884C20.5964 39.2157 19.3814 40.8406 18.1811 42.4654C17.9615 42.7582 17.8883 42.5679 17.7712 42.3922C17.0539 41.309 16.0732 40.621 14.7704 40.416C12.9259 40.1379 11.4914 40.8113 10.4228 42.3044C10.335 42.4215 10.3057 42.5679 10.1154 42.6557C8.87117 41.0016 7.62692 39.3328 6.26556 37.5177C11.5207 38.8937 16.6441 38.9229 21.8845 37.4884Z" fill="white"/>
<path id="Vector_6" d="M14.0238 1.75658C10.9937 1.75658 7.96355 1.74195 4.93344 1.77122C4.50893 1.77122 4.37719 1.66876 4.39183 1.22961C4.4211 0.0146384 4.39183 0.0146391 5.6068 0.0146391C11.4328 0.0146391 17.2442 0.0146382 23.0702 0C23.5679 0 23.7143 0.117106 23.6996 0.629443C23.6557 1.77122 23.685 1.77122 22.5578 1.77122C19.718 1.75659 16.8782 1.75658 14.0238 1.75658Z" fill="white"/>
<path id="Vector_7" d="M14.0238 5.25512C11.5792 5.25512 9.13462 5.24048 6.69004 5.26976C6.2509 5.26976 6.14843 5.13801 6.16307 4.72814C6.1777 3.51317 6.16307 3.51317 7.39267 3.51317C12.0476 3.51317 16.7026 3.51317 21.3429 3.49854C21.782 3.49854 21.987 3.55709 21.9577 4.06943C21.9138 5.24048 21.9431 5.25512 20.7574 5.25512C18.5031 5.25512 16.2634 5.25512 14.0238 5.25512Z" fill="white"/>
<path id="Vector_8" d="M16.4684 45.5833C16.0146 47.2375 13.936 47.8669 12.4868 46.8276C11.6671 46.2421 11.2279 45.1149 11.4475 44.1781C11.711 43.0802 12.6039 42.2312 13.6579 42.0848C14.7118 41.9384 15.795 42.48 16.3074 43.373C16.5416 43.7828 16.4391 43.856 16.0146 43.8414C15.4144 43.8121 14.8143 43.8268 14.2141 43.8414C13.5993 43.856 13.1602 44.222 13.1748 44.7343C13.1748 45.2467 13.5993 45.598 14.2287 45.598C14.9753 45.598 15.7218 45.5833 16.4684 45.5833Z" fill="white"/>
<path id="Vector_9" d="M15.8243 27.5344C13.9506 28.7786 11.2718 27.6954 10.6716 25.4997C10.291 24.1237 10.7595 22.6452 11.8866 21.7816C13.1162 20.8594 14.4336 20.7715 15.7804 21.4888C17.01 22.1475 17.7272 23.5528 17.5516 24.9727C17.493 25.4118 17.4638 25.9974 17.0832 26.1877C16.849 26.3048 16.5416 25.7485 16.2781 25.4997C15.8096 25.0605 15.3705 24.6067 14.9167 24.1529C14.3312 23.5821 13.8628 23.5235 13.4529 23.948C13.043 24.3725 13.1016 24.797 13.6578 25.3679C14.3605 26.0998 15.0924 26.8025 15.8243 27.5344Z" fill="white"/>
</g>
</g>
</g>
</svg>
