<svg width="38" height="50" viewBox="0 0 38 50" fill="none" xmlns="http://www.w3.org/2000/svg">
<path id="Vector" d="M6.20915 0C2.78442 0 0 2.80273 0 6.25V43.75C0 47.1973 2.78442 50 6.20915 50H31.0458C34.4705 50 37.2549 47.1973 37.2549 43.75V15.625H24.8366C23.1194 15.625 21.732 14.2285 21.732 12.5V0H6.20915ZM24.8366 0V12.5H37.2549L24.8366 0ZM10.866 25H26.3889C27.2426 25 27.9412 25.7031 27.9412 26.5625C27.9412 27.4219 27.2426 28.125 26.3889 28.125H10.866C10.0123 28.125 9.31373 27.4219 9.31373 26.5625C9.31373 25.7031 10.0123 25 10.866 25ZM10.866 31.25H26.3889C27.2426 31.25 27.9412 31.9531 27.9412 32.8125C27.9412 33.6719 27.2426 34.375 26.3889 34.375H10.866C10.0123 34.375 9.31373 33.6719 9.31373 32.8125C9.31373 31.9531 10.0123 31.25 10.866 31.25ZM10.866 37.5H26.3889C27.2426 37.5 27.9412 38.2031 27.9412 39.0625C27.9412 39.9219 27.2426 40.625 26.3889 40.625H10.866C10.0123 40.625 9.31373 39.9219 9.31373 39.0625C9.31373 38.2031 10.0123 37.5 10.866 37.5Z" fill="white"/>
</svg>
