<svg xmlns="http://www.w3.org/2000/svg" width="103" height="103" viewBox="0 0 103 103" fill="none">
<path d="M1.83341 64.2308C3.41961 62.4798 5.68561 61.8206 7.68381 60.7906C13.8432 57.6594 20.085 54.6518 26.2238 51.4794C28.531 50.2846 30.6116 51.6854 30.4056 54.1162C30.2408 56.0526 30.3644 58.0096 30.385 59.946C30.385 60.9142 30.6116 61.0996 31.4768 60.6876C35.7616 58.5658 40.0464 56.4234 44.3312 54.3016C44.8874 54.0338 44.805 53.5806 44.805 53.148C44.8256 47.9568 44.8256 42.7862 44.8256 37.595C44.8256 35.2672 44.8668 32.9394 44.805 30.591C44.7638 28.84 46.1028 27.501 47.7508 27.6658C48.9044 27.7688 50.0786 27.6864 51.2528 27.6864C53.2304 27.6864 54.1986 28.6752 54.1986 30.6734C54.1986 33.0424 54.1986 35.4114 54.1986 37.7598C54.1986 44.8874 54.1986 52.015 54.2192 59.1426C54.2192 59.2662 54.2192 59.4104 54.2192 59.534C54.2398 60.9142 54.4252 61.0172 55.6612 60.4198C60.2344 58.1332 64.787 55.8466 69.3808 53.6012C70.1018 53.251 70.3696 52.839 70.3902 52.0562C70.5138 45.835 70.6786 39.6138 70.8228 33.4132C71.0082 25.8118 71.1524 18.1898 71.3378 10.5884C71.3996 8.09582 72.2236 7.33362 74.7368 7.33362C77.7444 7.33362 80.752 7.31302 83.7802 7.33362C85.9844 7.33362 86.9114 8.32242 86.9526 10.5472C87.1792 20.703 87.4264 30.8794 87.6736 41.0352C87.7766 45.4436 87.8384 49.852 87.9208 54.2398C87.962 56.0938 87.962 56.1144 89.61 55.2904C92.1232 54.0338 94.6982 52.8802 97.1496 51.5206C99.5804 50.1816 101.393 51.7678 101.373 54.075C101.27 67.1354 101.311 80.1752 101.352 93.2356C101.352 95.0484 100.178 96.2844 98.2826 96.2844C67.1148 96.2638 35.9676 96.2638 4.79981 96.2844C3.39901 96.2844 2.51321 95.6046 1.79221 94.554C1.83341 84.4394 1.83341 74.3454 1.83341 64.2308ZM72.7798 81.1846C72.7798 79.8662 72.7592 78.5272 72.7798 77.2088C72.8004 76.5908 72.5738 76.426 71.997 76.4466C70.349 76.4672 68.701 76.4878 67.053 76.4466C66.3114 76.426 66.126 76.6938 66.1466 77.4148C66.1878 79.9074 66.1878 82.4 66.1466 84.872C66.126 85.5312 66.3938 85.7166 66.9706 85.7166C68.7216 85.7166 70.452 85.696 72.203 85.7166C72.718 85.7166 72.7798 85.4694 72.7798 85.0574C72.7798 83.7802 72.7798 82.4824 72.7798 81.1846ZM54.8784 81.1228C54.8784 79.8868 54.8784 78.6714 54.899 77.4354C54.899 76.7556 54.6312 76.4466 53.9102 76.4466C52.324 76.4672 50.7378 76.4672 49.1516 76.4466C48.4718 76.426 48.2452 76.6938 48.2452 77.353C48.2658 79.8456 48.2864 82.3382 48.2452 84.8308C48.2452 85.49 48.4924 85.696 49.0898 85.696C50.7378 85.696 52.3858 85.6754 54.0338 85.6754C54.6724 85.6754 54.899 85.4076 54.8784 84.8102C54.8578 83.5742 54.8784 82.3588 54.8784 81.1228ZM30.3438 81.0816C30.3438 82.3176 30.3644 83.533 30.3232 84.769C30.3026 85.3664 30.4674 85.6754 31.1266 85.6754C32.8364 85.6548 34.5462 85.6548 36.2766 85.6548C36.7298 85.6548 36.9152 85.4282 36.9152 85.0162C36.8946 82.4206 36.8946 79.8456 36.8946 77.25C36.8946 76.6732 36.6268 76.4466 36.0706 76.4466C34.4432 76.4672 32.8364 76.4672 31.209 76.426C30.5704 76.4054 30.3438 76.6938 30.3438 77.2912C30.3644 78.5684 30.3438 79.825 30.3438 81.0816ZM18.952 81.0404C18.952 79.8044 18.9314 78.589 18.952 77.353C18.9726 76.6938 18.7048 76.4466 18.0456 76.4466C16.4594 76.4672 14.8732 76.4672 13.3076 76.426C12.6278 76.4054 12.3806 76.7144 12.3806 77.353C12.3806 79.8456 12.3806 82.3176 12.3806 84.8102C12.3806 85.4282 12.6278 85.6754 13.2458 85.6754C14.8526 85.6548 16.48 85.6548 18.0868 85.6754C18.746 85.6754 19.0138 85.387 18.9932 84.7278C18.9314 83.4918 18.952 82.2764 18.952 81.0404Z" fill="white"/>
</svg>