<svg width="51" height="50" viewBox="0 0 51 50" fill="none" xmlns="http://www.w3.org/2000/svg">
<g id="Group 60">
<g id="Group">
<g id="Group_2">
<path id="Vector" d="M0 39.5332C0.339005 38.6205 0.795358 37.8121 1.5516 37.1733C1.7863 36.9777 1.65591 36.6778 1.65591 36.4301C1.68199 34.6959 2.47734 33.4703 4.02894 32.7271C4.4853 32.5054 4.98077 32.362 5.48927 32.4141C6.06297 32.4793 6.46717 32.2838 6.89745 31.8665C8.27955 30.4714 10.3788 30.341 11.9564 31.4884C12.817 32.1143 13.169 32.2577 14.2382 32.4272C16.194 32.7401 17.6022 34.3699 17.5761 36.3649C17.5631 36.8603 17.7065 37.1993 18.0585 37.5514C19.6753 39.1421 19.6884 41.5542 18.0716 43.158C17.7065 43.5231 17.55 43.8751 17.5761 44.3836C17.6804 46.4177 15.8811 48.3865 13.6384 48.3083C13.143 48.2952 12.804 48.4256 12.4519 48.7907C10.9003 50.3944 8.40993 50.4075 6.84529 48.8037C6.48021 48.4256 6.12817 48.3083 5.61966 48.3083C3.41613 48.3213 1.66895 46.5741 1.69502 44.3576C1.69502 43.8621 1.59072 43.51 1.21259 43.171C0.586739 42.6364 0.299889 41.8541 0.0260774 41.0979C9.90885e-08 40.5763 0 40.0548 0 39.5332Z" fill="white"/>
<path id="Vector_2" d="M43.0536 0C43.7577 0.299889 44.3966 0.664971 44.9051 1.27779C45.0746 1.48641 45.3745 1.3821 45.5962 1.36906C46.9001 1.29083 48.243 2.22961 48.569 3.6769C48.582 3.70298 48.6081 3.74209 48.5951 3.76817C48.4125 4.69392 48.9471 5.29369 49.4687 5.9717C50.3423 7.11911 50.1336 8.64463 49.0775 9.68772C48.7385 10.0267 48.556 10.3527 48.6081 10.8221C48.7515 12.1911 47.4477 13.8471 45.7135 13.7558C45.2181 13.7297 44.8791 13.8601 44.527 14.2252C43.3405 15.4508 41.5933 15.4769 40.3547 14.2773C39.9765 13.9122 39.6114 13.7427 39.0899 13.7558C37.4992 13.7819 36.2084 12.478 36.2344 10.8873C36.2344 10.3918 36.1432 10.0267 35.752 9.6486C34.5264 8.47513 34.5133 6.67579 35.739 5.48927C36.1171 5.12419 36.2605 4.75911 36.2344 4.26364C36.1562 2.699 37.6296 1.29083 39.129 1.3821C39.6114 1.40817 39.9896 1.3169 40.3155 0.912705C40.6806 0.443314 41.2674 0.260773 41.7889 0.0130385C42.2061 -1.99148e-07 42.6234 0 43.0536 0Z" fill="white"/>
<path id="Vector_3" d="M21.5138 43.2884C21.918 42.3366 22.1788 41.3456 22.1527 40.3025C22.1266 38.9595 21.8137 37.6948 21.0314 36.5995C20.6402 36.0519 20.4316 35.4913 20.3012 34.8393C19.7536 32.036 17.3805 29.8846 14.5381 29.5587C14.3164 29.5326 14.0948 29.4804 13.9122 29.324C12.5301 28.2026 10.9264 27.7463 9.15314 27.8245C8.86629 27.8376 8.67071 27.7333 8.46209 27.5638C6.87137 26.1817 6.85833 23.8217 8.44905 22.4396C8.69678 22.2309 8.93148 21.9962 9.21833 21.8398C9.58341 21.6312 9.5443 21.4095 9.34872 21.0966C9.02275 20.575 8.70982 20.0535 8.59247 19.4276C8.25347 17.7456 9.20529 16.0767 10.8221 15.5421C11.122 15.4378 11.4349 15.3335 11.7478 15.2813C12.1911 15.2161 12.2433 14.9815 12.1781 14.6033C12.0347 13.8862 11.9695 13.1691 12.2042 12.4389C12.7257 10.796 14.4077 9.79207 16.1027 10.118C16.3766 10.1702 16.6504 10.1963 16.9242 10.2354C17.0937 10.2615 17.1458 10.1832 17.1849 10.0268C17.2762 9.68776 17.3805 9.34875 17.4718 9.00975C18.0977 6.91053 20.3403 5.94566 22.2961 6.9366C22.583 7.08003 22.8828 7.23649 23.1436 7.40599C23.4044 7.5755 23.5869 7.5755 23.7825 7.28865C23.965 7.0018 24.1997 6.74102 24.4214 6.48025C25.7513 4.94169 27.994 4.8765 29.4152 6.33682C29.6238 6.55848 29.8194 6.80622 30.0019 7.05395C30.5365 7.73196 30.3931 7.61461 31.0711 7.26257C31.3058 7.14522 31.5275 7.01483 31.7491 6.88445C31.7882 6.87141 31.8404 6.88445 31.9186 6.88445C31.8274 8.1492 31.9969 9.36179 32.6618 10.431C33.0791 11.0959 33.3007 11.8131 33.5354 12.5563C34.2395 14.825 35.8041 16.194 38.1641 16.6243C38.4119 16.6765 38.6596 16.7286 38.8813 16.8981C40.7197 18.215 42.6886 18.4367 44.7617 17.5631C45.1529 17.4066 45.205 17.511 45.2963 17.8369C45.5962 18.8018 45.4006 19.6884 44.9182 20.549C44.7356 20.8749 44.4097 21.227 44.4357 21.5269C44.4749 21.8398 44.9573 22.0093 45.2441 22.244C47.0956 23.7043 47.1347 26.1165 45.3615 27.6681C45.0355 27.9549 44.4618 28.1114 44.4357 28.5156C44.4097 28.8676 44.8008 29.2457 44.9964 29.6239C46.0395 31.6318 45.0225 33.9527 42.832 34.5655C42.6625 34.6177 42.4799 34.6437 42.3104 34.6959C41.6715 34.8784 41.6715 34.9045 41.7889 35.5695C41.9845 36.6908 41.8932 37.773 41.1109 38.6857C40.2764 39.6767 39.1942 40.0548 37.9425 39.9114C36.8342 39.781 36.8081 39.7419 36.5343 40.798C36.104 42.4539 34.6828 43.6274 32.8053 43.4579C32.1012 43.3927 31.5014 43.0667 30.9407 42.6886C30.5365 42.4148 30.3149 42.493 30.0541 42.8842C29.4674 43.7447 28.7502 44.4488 27.655 44.6574C26.3902 44.8921 25.3471 44.5401 24.4866 43.6274C24.2128 43.3405 23.9781 43.0276 23.7564 42.7147C23.6 42.48 23.4435 42.4409 23.1958 42.5973C22.7525 42.8581 22.3091 43.1449 21.8137 43.3144C21.7354 43.3144 21.6442 43.3536 21.5138 43.2884Z" fill="white"/>
<path id="Vector_4" d="M7.06696 4.65486C7.39293 4.75917 7.61458 4.57662 7.86232 4.31585C9.21834 2.90768 10.9916 2.92071 12.3476 4.35497C12.5693 4.58966 12.7909 4.68093 13.1169 4.66789C14.1339 4.6027 14.9945 4.95475 15.6464 5.7501C15.7768 5.90657 15.7637 6.01088 15.6594 6.20646C15.3074 6.91054 14.8119 7.21043 14.0035 7.35386C11.4871 7.79717 9.38784 10.2093 9.17922 12.7388C9.15314 13.0126 9.04883 13.143 8.84022 13.2604C7.4842 14.0036 6.54541 15.0988 6.02387 16.5461C5.91956 16.8199 5.81525 16.8851 5.54144 16.7417C4.51138 16.168 3.89857 15.3335 3.9116 14.1209C3.92464 13.6385 3.79426 13.2864 3.44221 12.9344C2.1905 11.6827 2.21658 9.93551 3.49437 8.70988C3.82033 8.39695 3.95072 8.08402 3.9116 7.64071C3.79426 6.23253 5.01989 4.55055 7.06696 4.65486Z" fill="white"/>
</g>
</g>
</g>
</svg>
