<svg width="50" height="50" viewBox="0 0 50 50" fill="none" xmlns="http://www.w3.org/2000/svg">
<path id="Vector" d="M0 25C0 18.3696 2.63392 12.0107 7.32233 7.32233C12.0107 2.63392 18.3696 0 25 0C31.6304 0 37.9893 2.63392 42.6777 7.32233C47.3661 12.0107 50 18.3696 50 25C50 31.6304 47.3661 37.9893 42.6777 42.6777C37.9893 47.3661 31.6304 50 25 50C18.3696 50 12.0107 47.3661 7.32233 42.6777C2.63392 37.9893 0 31.6304 0 25ZM31.25 34.375C31.25 31.748 29.6387 29.502 27.3438 28.584V8.59375C27.3438 7.29492 26.2988 6.25 25 6.25C23.7012 6.25 22.6562 7.29492 22.6562 8.59375V28.584C20.3613 29.5117 18.75 31.7578 18.75 34.375C18.75 37.8223 21.5527 40.625 25 40.625C28.4473 40.625 31.25 37.8223 31.25 34.375ZM14.0625 17.1875C14.8913 17.1875 15.6862 16.8583 16.2722 16.2722C16.8583 15.6862 17.1875 14.8913 17.1875 14.0625C17.1875 13.2337 16.8583 12.4388 16.2722 11.8528C15.6862 11.2667 14.8913 10.9375 14.0625 10.9375C13.2337 10.9375 12.4388 11.2667 11.8528 11.8528C11.2667 12.4388 10.9375 13.2337 10.9375 14.0625C10.9375 14.8913 11.2667 15.6862 11.8528 16.2722C12.4388 16.8583 13.2337 17.1875 14.0625 17.1875ZM12.5 25C12.5 24.1712 12.1708 23.3763 11.5847 22.7903C10.9987 22.2042 10.2038 21.875 9.375 21.875C8.5462 21.875 7.75134 22.2042 7.16529 22.7903C6.57924 23.3763 6.25 24.1712 6.25 25C6.25 25.8288 6.57924 26.6237 7.16529 27.2097C7.75134 27.7958 8.5462 28.125 9.375 28.125C10.2038 28.125 10.9987 27.7958 11.5847 27.2097C12.1708 26.6237 12.5 25.8288 12.5 25ZM40.625 28.125C41.4538 28.125 42.2487 27.7958 42.8347 27.2097C43.4208 26.6237 43.75 25.8288 43.75 25C43.75 24.1712 43.4208 23.3763 42.8347 22.7903C42.2487 22.2042 41.4538 21.875 40.625 21.875C39.7962 21.875 39.0013 22.2042 38.4153 22.7903C37.8292 23.3763 37.5 24.1712 37.5 25C37.5 25.8288 37.8292 26.6237 38.4153 27.2097C39.0013 27.7958 39.7962 28.125 40.625 28.125ZM39.0625 14.0625C39.0625 13.2337 38.7333 12.4388 38.1472 11.8528C37.5612 11.2667 36.7663 10.9375 35.9375 10.9375C35.1087 10.9375 34.3138 11.2667 33.7278 11.8528C33.1417 12.4388 32.8125 13.2337 32.8125 14.0625C32.8125 14.8913 33.1417 15.6862 33.7278 16.2722C34.3138 16.8583 35.1087 17.1875 35.9375 17.1875C36.7663 17.1875 37.5612 16.8583 38.1472 16.2722C38.7333 15.6862 39.0625 14.8913 39.0625 14.0625Z" fill="white"/>
</svg>
