<svg width="56" height="50" viewBox="0 0 56 50" fill="none" xmlns="http://www.w3.org/2000/svg">
<g id="Group 65">
<g id="Group">
<g id="Group_2">
<path id="Vector" d="M55.2267 8.27307C55.0343 8.8277 54.9551 9.41629 54.6947 9.94829C53.5062 12.3479 51.548 13.5364 48.9107 13.5364C42.9456 13.5591 36.9691 13.5477 31.004 13.5251C30.5173 13.5251 30.3362 13.6609 30.2004 14.125C28.944 18.2112 25.254 21.1541 20.9414 21.5503C15.3272 22.071 10.2449 18.1885 9.29414 12.6196C8.99984 10.8764 9.16963 9.09936 9.18095 7.34491C9.18095 6.82424 9.54316 6.48467 10.0752 6.42807C10.5053 6.3828 10.9354 6.36016 11.3655 6.39412C11.7277 6.42807 11.8522 6.26961 11.9541 5.95267C13.0181 2.70412 15.2479 0.700651 18.5757 0.123381C22.6845 -0.578398 26.5783 1.76464 27.9026 5.8508C28.0497 6.31488 28.2648 6.40544 28.6836 6.40544C37.0031 6.39412 45.3339 6.40544 53.6534 6.3828C54.3099 6.3828 54.8419 6.51863 55.2154 7.08458C55.2267 7.49206 55.2267 7.88823 55.2267 8.27307ZM32.0906 8.57869C25.6162 8.59001 19.1417 8.59001 12.6785 8.59001C12.339 8.59001 11.9994 8.60133 11.6485 8.59001C11.3768 8.57869 11.3089 8.69188 11.3089 8.9409C11.3202 9.51816 11.3202 10.0954 11.3089 10.6614C11.2297 15.4041 14.931 19.0941 19.2209 19.4449C22.9336 19.7506 26.6349 17.4981 27.9705 14.0118C28.1177 13.627 28.0271 13.5591 27.6536 13.5591C25.6614 13.5704 23.658 13.5591 21.6658 13.5704C21.4281 13.5704 21.2017 13.5817 20.9754 13.4798C20.5452 13.2874 20.2962 12.9818 20.2623 12.4951C20.2396 11.997 20.5 11.6801 20.9188 11.4764C21.1904 11.3518 21.4847 11.3971 21.7677 11.3971C30.8116 11.3971 39.8555 11.3971 48.8994 11.3971C50.518 11.3971 51.7744 10.7519 52.6007 9.32574C52.9855 8.65792 52.9403 8.59001 52.2045 8.59001C45.5037 8.57869 38.8028 8.57869 32.0906 8.57869ZM19.9793 6.40544C21.7564 6.40544 23.5335 6.39412 25.3219 6.41675C25.7633 6.42807 25.7973 6.31488 25.6501 5.94136C24.7559 3.73415 22.4468 2.19476 19.968 2.18344C17.5004 2.17212 15.1574 3.72283 14.2405 5.95267C14.0934 6.30356 14.1274 6.41675 14.5348 6.41675C16.3572 6.39412 18.1682 6.40544 19.9793 6.40544Z" fill="white"/>
<path id="Vector_2" d="M24.3597 49.9952C18.3154 49.9952 12.2824 49.9952 6.238 49.9952C3.2045 49.9952 0.985976 48.3313 0.182325 45.4789C0.0578163 45.0261 -0.0100979 44.5621 0.00122113 44.098C0.0125401 43.4415 0.420025 43.0227 1.07653 43C1.95941 42.9774 2.84229 42.9774 3.71386 43C4.07607 43.0114 4.30245 42.8868 4.52883 42.6152C7.76607 38.6309 10.9807 34.624 14.2745 30.6849C17.2401 27.1421 21.1225 25.6027 25.6954 26.0102C29.5778 26.3611 32.6226 28.2966 35.0562 31.3301C38.101 35.156 41.2251 38.9139 44.3152 42.6944C44.4963 42.9095 44.6774 43 44.9604 42.9887C45.8432 42.9774 46.7261 42.9774 47.5977 42.9887C48.4013 43 48.7749 43.4075 48.7522 44.2112C48.673 47.5276 46.0357 49.9839 42.5154 49.9952C36.4824 50.0065 30.4154 49.9952 24.3597 49.9952ZM7.03033 42.9661C7.27935 42.9774 7.41518 42.9887 7.551 42.9887C18.7342 42.9887 29.9174 42.9887 41.0893 42.9774C41.259 42.9774 41.4967 43.068 41.5873 42.8982C41.6778 42.7171 41.4515 42.5926 41.3496 42.4567C38.7123 39.2082 36.041 35.9822 33.4263 32.7111C31.1398 29.836 28.2648 28.1495 24.5408 28.1042C21.1451 28.0589 18.2814 29.304 16.0969 31.8848C13.6406 34.7937 11.2863 37.7593 8.88665 40.691C8.28674 41.4154 7.69815 42.1511 7.03033 42.9661ZM24.4277 45.1507C17.274 45.1507 10.1204 45.1507 2.9668 45.1507C2.26502 45.1507 2.24239 45.1846 2.59328 45.8185C3.36297 47.1994 4.58542 47.8333 6.14745 47.8333C8.7395 47.8333 11.3202 47.8333 13.9123 47.8333C23.4429 47.8333 32.9622 47.8219 42.4928 47.8333C44.1341 47.8333 45.4244 47.2447 46.2281 45.7506C46.5111 45.2186 46.4658 45.1507 45.8998 45.1507C38.7349 45.1507 31.5813 45.1507 24.4277 45.1507Z" fill="white"/>
<path id="Vector_3" d="M15.8252 41.0531C15.4291 41.0191 15.0329 41.0984 14.648 40.9852C14.1274 40.8267 13.7765 40.3626 13.8104 39.8759C13.8444 39.3326 14.2632 38.9251 14.8518 38.9025C15.5309 38.8798 16.2214 38.8798 16.9005 38.9025C17.4438 38.9251 17.8513 39.3213 17.9079 39.842C17.9645 40.374 17.6249 40.838 17.059 40.9965C16.6515 41.1097 16.2327 41.0191 15.8252 41.0531Z" fill="white"/>
<path id="Vector_4" d="M18.0437 35.2462C18.3607 35.2462 18.6889 35.2349 19.0059 35.2462C19.6284 35.2688 20.0246 35.6424 20.0699 36.2309C20.1038 36.8308 19.7303 37.3289 19.1191 37.3742C18.4286 37.4194 17.7155 37.4194 17.025 37.3742C16.4138 37.3402 15.995 36.8195 16.029 36.2423C16.0629 35.6423 16.493 35.2462 17.1269 35.2349C17.4325 35.2349 17.7381 35.2462 18.0437 35.2462Z" fill="white"/>
<path id="Vector_5" d="M21.8922 38.9024C22.2318 38.9024 22.5713 38.8798 22.9109 38.9024C23.4655 38.9477 23.8391 39.3212 23.8957 39.8645C23.9522 40.3286 23.624 40.8606 23.1373 40.9625C22.2884 41.1322 21.4281 41.1322 20.5792 40.9625C20.0698 40.8606 19.7868 40.3512 19.8434 39.8079C19.8887 39.3325 20.2622 38.9703 20.7603 38.9137C20.8169 38.9024 20.8622 38.9024 20.9188 38.9024C21.247 38.8911 21.5753 38.8911 21.8922 38.9024C21.8922 38.8911 21.8922 38.8911 21.8922 38.9024Z" fill="white"/>
</g>
</g>
</g>
</svg>
