<svg xmlns="http://www.w3.org/2000/svg" width="65" height="66" viewBox="0 0 65 66" fill="none">
<path d="M52.8125 26.4062C52.8125 32.2334 50.9209 37.6162 47.7344 41.9834L63.8066 58.0684C65.3936 59.6553 65.3936 62.2324 63.8066 63.8193C62.2197 65.4062 59.6426 65.4062 58.0557 63.8193L41.9834 47.7344C37.6162 50.9336 32.2334 52.8125 26.4062 52.8125C11.8193 52.8125 0 40.9932 0 26.4062C0 11.8193 11.8193 0 26.4062 0C40.9932 0 52.8125 11.8193 52.8125 26.4062ZM26.4062 44.6875C28.807 44.6875 31.1842 44.2146 33.4022 43.2959C35.6202 42.3772 37.6355 41.0306 39.333 39.333C41.0306 37.6355 42.3772 35.6202 43.2959 33.4022C44.2146 31.1842 44.6875 28.807 44.6875 26.4062C44.6875 24.0055 44.2146 21.6283 43.2959 19.4103C42.3772 17.1923 41.0306 15.177 39.333 13.4795C37.6355 11.7819 35.6202 10.4353 33.4022 9.51658C31.1842 8.59786 28.807 8.125 26.4062 8.125C24.0055 8.125 21.6283 8.59786 19.4103 9.51658C17.1923 10.4353 15.177 11.7819 13.4795 13.4795C11.7819 15.177 10.4353 17.1923 9.51658 19.4103C8.59786 21.6283 8.125 24.0055 8.125 26.4062C8.125 28.807 8.59786 31.1842 9.51658 33.4022C10.4353 35.6202 11.7819 37.6355 13.4795 39.333C15.177 41.0306 17.1923 42.3772 19.4103 43.2959C21.6283 44.2146 24.0055 44.6875 26.4062 44.6875Z" fill="white"/>
</svg>