<?xml version="1.0" encoding="UTF-8"?>
<!DOCTYPE svg PUBLIC "-//W3C//DTD SVG 1.1//EN" "http://www.w3.org/Graphics/SVG/1.1/DTD/svg11.dtd">
<svg xmlns="http://www.w3.org/2000/svg" version="1.1" width="200px" height="208px" style="shape-rendering:geometricPrecision; text-rendering:geometricPrecision; image-rendering:optimizeQuality; fill-rule:evenodd; clip-rule:evenodd" xmlns:xlink="http://www.w3.org/1999/xlink">
<g><path style="opacity:0.956" fill="#fefffe" d="M 11.5,4.5 C 70.1676,4.33334 128.834,4.50001 187.5,5C 191.948,7.11447 195.448,10.2811 198,14.5C 198.667,55.5 198.667,96.5 198,137.5C 195.532,142.989 191.365,146.489 185.5,148C 128.167,148.667 70.8333,148.667 13.5,148C 7.75308,145.921 3.58642,142.088 1,136.5C 0.333333,96.1667 0.333333,55.8333 1,15.5C 3.35659,10.6455 6.85659,6.97883 11.5,4.5 Z M 48.5,28.5 C 65.3323,27.8357 73.8323,35.8357 74,52.5C 73.3116,56.2093 71.8116,59.5427 69.5,62.5C 82.0601,71.2895 87.2268,83.2895 85,98.5C 84.5,99 84,99.5 83.5,100C 63.8333,100.667 44.1667,100.667 24.5,100C 23.3333,99.5 22.5,98.6667 22,97.5C 20.5304,82.4431 26.0304,70.7765 38.5,62.5C 33.3629,55.8739 32.1962,48.5406 35,40.5C 37.85,34.5144 42.35,30.5144 48.5,28.5 Z M 108.5,28.5 C 130.836,28.3334 153.169,28.5 175.5,29C 178.167,32 178.167,35 175.5,38C 153.167,38.6667 130.833,38.6667 108.5,38C 104.581,34.8397 104.581,31.673 108.5,28.5 Z M 108.5,51.5 C 130.503,51.3334 152.503,51.5 174.5,52C 175.416,52.3742 176.25,52.8742 177,53.5C 177.667,76.1667 177.667,98.8333 177,121.5C 176.5,122 176,122.5 175.5,123C 152.594,123.827 129.761,123.66 107,122.5C 105.355,99.9216 105.022,77.255 106,54.5C 107.045,53.6266 107.878,52.6266 108.5,51.5 Z M 151.5,74.5 C 155.703,73.7021 158.37,75.3688 159.5,79.5C 153.167,87.8333 145.833,95.1667 137.5,101.5C 132.888,98.3916 128.722,94.725 125,90.5C 123.28,84.5557 125.447,82.0557 131.5,83C 133.35,85.0176 135.35,86.8509 137.5,88.5C 142.521,84.1456 147.188,79.479 151.5,74.5 Z M 24.5,113.5 C 43.8362,113.333 63.1695,113.5 82.5,114C 86.0846,116.528 86.418,119.528 83.5,123C 63.5,123.667 43.5,123.667 23.5,123C 20.6749,119.476 21.0082,116.31 24.5,113.5 Z"/></g>
<g><path style="opacity:0.874" fill="#fefffe" d="M 51.5,38.5 C 62.6704,39.515 66.1704,45.1817 62,55.5C 56.0013,60.9678 50.3346,60.6344 45,54.5C 41.9401,46.9617 44.1068,41.6283 51.5,38.5 Z"/></g>
<g><path style="opacity:0.892" fill="#fefffe" d="M 116.5,61.5 C 133.5,61.5 150.5,61.5 167.5,61.5C 167.5,78.8333 167.5,96.1667 167.5,113.5C 150.167,113.5 132.833,113.5 115.5,113.5C 115.181,96.0898 115.515,78.7564 116.5,61.5 Z M 151.5,74.5 C 147.188,79.479 142.521,84.1456 137.5,88.5C 135.35,86.8509 133.35,85.0176 131.5,83C 125.447,82.0557 123.28,84.5557 125,90.5C 128.722,94.725 132.888,98.3916 137.5,101.5C 145.833,95.1667 153.167,87.8333 159.5,79.5C 158.37,75.3688 155.703,73.7021 151.5,74.5 Z"/></g>
<g><path style="opacity:0.894" fill="#fefffe" d="M 50.5,69.5 C 61.5618,68.9408 69.3952,73.6075 74,83.5C 74.977,85.74 75.477,88.0733 75.5,90.5C 60.8182,90.8326 46.1515,90.4993 31.5,89.5C 33.8109,78.8589 40.1443,72.1923 50.5,69.5 Z"/></g>
<g><path style="opacity:0.978" fill="#fefffe" d="M 46.5,165.5 C 84.5,165.5 122.5,165.5 160.5,165.5C 160.5,177.833 160.5,190.167 160.5,202.5C 122.5,202.5 84.5,202.5 46.5,202.5C 46.5,190.167 46.5,177.833 46.5,165.5 Z"/></g>
<g><path style="opacity:0.964" fill="#fefffe" d="M 171.5,165.5 C 178.947,165.071 186.281,165.571 193.5,167C 195,168.5 196.5,170 198,171.5C 198.667,180.167 198.667,188.833 198,197.5C 196.5,199 195,200.5 193.5,202C 186.174,202.5 178.841,202.666 171.5,202.5C 171.5,190.167 171.5,177.833 171.5,165.5 Z"/></g>
<g><path style="opacity:0.925" fill="#fefffe" d="M 32.5,167.5 C 33.8734,167.343 35.2068,167.51 36.5,168C 35.1667,179 35.1667,190 36.5,201C 24.3194,198.05 12.486,193.883 1,188.5C -0.00370731,185.007 0.496293,181.841 2.5,179C 12.699,175.389 22.699,171.556 32.5,167.5 Z"/></g>
</svg>
