<?xml version="1.0" encoding="UTF-8"?>
<!DOCTYPE svg PUBLIC "-//W3C//DTD SVG 1.1//EN" "http://www.w3.org/Graphics/SVG/1.1/DTD/svg11.dtd">
<svg xmlns="http://www.w3.org/2000/svg" version="1.1" width="200px" height="208px" style="shape-rendering:geometricPrecision; text-rendering:geometricPrecision; image-rendering:optimizeQuality; fill-rule:evenodd; clip-rule:evenodd" xmlns:xlink="http://www.w3.org/1999/xlink">
<g><path style="opacity:0.923" fill="#fefffe" d="M 52.5,5.5 C 83.8351,5.33335 115.168,5.50002 146.5,6C 156.19,10.8838 159.856,18.7172 157.5,29.5C 153.5,29.5 149.5,29.5 145.5,29.5C 145.664,26.8127 145.497,24.146 145,21.5C 144.5,19.6667 143.333,18.5 141.5,18C 113.5,17.3333 85.5,17.3333 57.5,18C 55.6667,18.5 54.5,19.6667 54,21.5C 53.5026,24.146 53.3359,26.8127 53.5,29.5C 49.5,29.5 45.5,29.5 41.5,29.5C 39.2777,18.6203 42.9443,10.6203 52.5,5.5 Z"/></g>
<g><path style="opacity:0.943" fill="#fefffe" d="M 13.5,39.5 C 36.1691,39.3334 58.8358,39.5 81.5,40C 91.4617,44.178 95.6284,51.678 94,62.5C 63.2402,63.4956 32.4069,63.8289 1.5,63.5C -0.818888,52.1368 3.18111,44.1368 13.5,39.5 Z"/></g>
<g><path style="opacity:0.944" fill="#fefffe" d="M 118.5,39.5 C 140.836,39.3334 163.169,39.5 185.5,40C 195.949,44.3963 199.949,52.2297 197.5,63.5C 166.832,63.6666 136.165,63.5 105.5,63C 103.262,51.4302 107.595,43.5969 118.5,39.5 Z"/></g>
<g><path style="opacity:0.96" fill="#fefffe" d="M 1.5,73.5 C 32.1685,73.3334 62.8351,73.5 93.5,74C 94.4944,98.4253 94.8277,122.925 94.5,147.5C 63.5,147.5 32.5,147.5 1.5,147.5C 1.5,122.833 1.5,98.1667 1.5,73.5 Z M 33.5,86.5 C 42.5062,86.3336 51.5062,86.5002 60.5,87C 64.7549,89.7106 65.0883,92.7106 61.5,96C 52.1667,96.6667 42.8333,96.6667 33.5,96C 29.6491,92.8557 29.6491,89.689 33.5,86.5 Z"/></g>
<g><path style="opacity:0.961" fill="#fefffe" d="M 105.5,73.5 C 136.167,73.5 166.833,73.5 197.5,73.5C 197.5,98.1667 197.5,122.833 197.5,147.5C 166.5,147.5 135.5,147.5 104.5,147.5C 104.177,122.759 104.51,98.0921 105.5,73.5 Z M 137.5,86.5 C 146.839,86.3335 156.173,86.5002 165.5,87C 169.5,90 169.5,93 165.5,96C 156.167,96.6667 146.833,96.6667 137.5,96C 134.168,93.0316 134.168,89.8649 137.5,86.5 Z"/></g>
<g><path style="opacity:0.901" fill="#fefffe" d="M 1.5,157.5 C 32.1685,157.333 62.8351,157.5 93.5,158C 94.1571,164.256 94.4904,170.589 94.5,177C 94.5938,184.56 94.0938,192.06 93,199.5C 90.5027,201.478 87.6693,201.978 84.5,201C 83.3333,200.5 82.5,199.667 82,198.5C 81.6667,187.5 81.3333,176.5 81,165.5C 70.5344,174.634 59.3677,182.634 47.5,189.5C 45.701,189.423 44.0344,188.923 42.5,188C 33,180.5 23.5,173 14,165.5C 13.6667,176.5 13.3333,187.5 13,198.5C 9.6101,202.032 5.94343,202.366 2,199.5C 1.50009,185.504 1.33343,171.504 1.5,157.5 Z"/></g>
<g><path style="opacity:0.901" fill="#fefffe" d="M 105.5,157.5 C 136.167,157.5 166.833,157.5 197.5,157.5C 197.667,171.504 197.5,185.504 197,199.5C 193.057,202.366 189.39,202.032 186,198.5C 185.667,187.5 185.333,176.5 185,165.5C 175.5,173 166,180.5 156.5,188C 153.167,190 149.833,190 146.5,188C 137,180.5 127.5,173 118,165.5C 117.667,176.5 117.333,187.5 117,198.5C 116.5,199.667 115.667,200.5 114.5,201C 108.957,202.957 105.79,201.124 105,195.5C 104.188,182.758 104.354,170.091 105.5,157.5 Z"/></g>
</svg>
