<?xml version="1.0" encoding="UTF-8"?>
<!DOCTYPE svg PUBLIC "-//W3C//DTD SVG 1.1//EN" "http://www.w3.org/Graphics/SVG/1.1/DTD/svg11.dtd">
<svg xmlns="http://www.w3.org/2000/svg" version="1.1" width="200px" height="208px" style="shape-rendering:geometricPrecision; text-rendering:geometricPrecision; image-rendering:optimizeQuality; fill-rule:evenodd; clip-rule:evenodd" xmlns:xlink="http://www.w3.org/1999/xlink">
<g><path style="opacity:0.938" fill="#fefffe" d="M -0.5,188.5 C -0.5,129.5 -0.5,70.5 -0.5,11.5C 1.26589,9.2294 3.26589,7.06274 5.5,5C 11.5,4.33333 17.5,4.33333 23.5,5C 25.9686,7.44108 27.802,10.2744 29,13.5C 29.3333,20.5 29.6667,27.5 30,34.5C 30.5,35.6667 31.3333,36.5 32.5,37C 64.5,37.3333 96.5,37.6667 128.5,38C 129.49,51.4208 129.823,64.9208 129.5,78.5C 108.242,79.0778 90.5758,87.2444 76.5,103C 70.0582,103.083 63.7248,103.749 57.5,105C 54.9199,107.544 54.9199,110.044 57.5,112.5C 61.0938,113.426 64.7604,113.759 68.5,113.5C 65.1566,121.533 62.8233,129.866 61.5,138.5C 56.6433,138.545 54.9766,140.879 56.5,145.5C 57.914,146.624 59.414,147.624 61,148.5C 61.5646,155.323 62.8979,161.99 65,168.5C 68.6883,176.552 72.855,184.218 77.5,191.5C 52.8311,191.667 28.1644,191.5 3.5,191C 2.01608,190.338 0.682751,189.504 -0.5,188.5 Z M 41.5,62.5 C 47.0226,62.5619 48.856,65.2286 47,70.5C 42.2813,75.7215 37.1147,80.3882 31.5,84.5C 26.6273,81.7945 22.9606,77.9612 20.5,73C 23.3884,67.6592 27.0551,67.1592 31.5,71.5C 34.879,68.4493 38.2123,65.4493 41.5,62.5 Z M 59.5,68.5 C 72.8375,68.3334 86.1708,68.5001 99.5,69C 102.966,71.6612 103.299,74.6612 100.5,78C 86.5,78.6667 72.5,78.6667 58.5,78C 54.6,74.4943 54.9333,71.3276 59.5,68.5 Z M 40.5,98.5 C 46.4992,98.002 48.6659,100.669 47,106.5C 42.5381,111.806 37.3714,116.139 31.5,119.5C 26.9465,117.784 23.4465,114.784 21,110.5C 22.4622,102.625 26.1288,101.625 32,107.5C 35.0379,104.631 37.8712,101.631 40.5,98.5 Z M 40.5,133.5 C 46.3252,132.506 48.4919,134.839 47,140.5C 42.8333,144.667 38.6667,148.833 34.5,153C 28.2943,153.169 23.7943,150.335 21,144.5C 20.5565,138.96 23.0565,137.127 28.5,139C 29.354,140.022 30.354,140.855 31.5,141.5C 34.5454,138.782 37.5454,136.116 40.5,133.5 Z"/></g>
<g><path style="opacity:0.964" fill="#fefffe" d="M 35.5,5.5 C 68.6641,4.33584 101.997,4.16917 135.5,5C 143.554,10.3061 146.887,17.8061 145.5,27.5C 110.167,27.5 74.8333,27.5 39.5,27.5C 39.6658,22.8215 39.4992,18.1548 39,13.5C 38.6126,10.4006 37.4459,7.73396 35.5,5.5 Z"/></g>
<g><path style="opacity:0.914" fill="#fefffe" d="M 169.5,74.5 C 172.155,75.0007 174.322,76.3341 176,78.5C 177.47,83.2426 179.136,87.9093 181,92.5C 186.721,94.3503 192.221,96.6836 197.5,99.5C 198.652,102.106 198.818,104.773 198,107.5C 190.5,115 183,122.5 175.5,130C 174.271,130.781 172.938,131.281 171.5,131.5C 163.516,129.564 156.016,126.564 149,122.5C 145.946,115.022 143.946,107.355 143,99.5C 151.451,90.5429 160.284,82.2096 169.5,74.5 Z"/></g>
<g><path style="opacity:0.92" fill="#fefffe" d="M 123.5,88.5 C 128.314,88.2197 132.98,88.8864 137.5,90.5C 132.546,98.7011 132.212,107.201 136.5,116C 136.333,116.5 136.167,117 136,117.5C 120.623,113.956 108.956,118.956 101,132.5C 95.7779,146.312 98.2779,158.479 108.5,169C 121.5,177.667 134.5,177.667 147.5,169C 156.092,159.894 159.426,149.227 157.5,137C 162.097,138.024 166.763,139.191 171.5,140.5C 175.951,139.435 180.284,138.102 184.5,136.5C 186.859,165.617 174.859,186.45 148.5,199C 146.564,199.813 144.564,200.313 142.5,200.5C 142.5,201.5 142.5,202.5 142.5,203.5C 132.833,203.5 123.167,203.5 113.5,203.5C 113.5,202.5 113.5,201.5 113.5,200.5C 94.1543,195.323 80.9877,183.323 74,164.5C 65.9828,132.038 76.8161,108.205 106.5,93C 112.175,90.9998 117.842,89.4998 123.5,88.5 Z"/></g>
<g><path style="opacity:0.868" fill="#fefffe" d="M 124.5,125.5 C 128.963,125.423 133.296,126.09 137.5,127.5C 137.649,128.552 137.483,129.552 137,130.5C 132.613,134.887 128.279,139.221 124,143.5C 123.286,149.566 125.786,151.4 131.5,149C 136,144.5 140.5,140 145,135.5C 151.146,149.063 147.312,158.896 133.5,165C 118.932,166.768 110.265,160.434 107.5,146C 108.674,135.335 114.341,128.501 124.5,125.5 Z"/></g>
</svg>
