<svg width="36" height="49" viewBox="0 0 36 49" fill="none" xmlns="http://www.w3.org/2000/svg">
<path id="Vector" d="M26.9837 7.53628C24.6246 6.45964 21.8389 7.49622 20.7644 9.85051L14.0946 24.4649C13.3931 26.0018 12.1691 27.0104 11.0094 27.619C9.52322 28.4007 8.28606 29.6502 7.53596 31.2937C5.74381 35.2205 7.4792 39.8555 11.4139 41.6513C15.3486 43.447 19.9871 41.721 21.7793 37.7942C22.5294 36.1507 22.6627 34.3974 22.2753 32.7714C21.9751 31.4966 21.9351 29.911 22.6365 28.3741L29.3104 13.7508C30.3849 11.3965 29.3427 8.61293 26.9837 7.53628ZM15.0671 7.25031C17.5729 1.75993 24.0682 -0.664431 29.5786 1.85045C35.089 4.36533 37.5176 10.8517 35.0077 16.351L28.3379 30.9654C28.3338 30.9743 28.3346 30.9961 28.3314 31.0268C28.3248 31.0882 28.3377 31.2015 28.3692 31.3446C29.0623 34.2802 28.8187 37.4538 27.4766 40.3944C24.2531 47.4573 15.8961 50.567 8.81895 47.3371C1.74181 44.1072 -1.38479 35.7564 1.83864 28.6935C3.18477 25.744 5.42252 23.4805 8.09028 22.0895C8.21905 22.0195 8.31301 21.955 8.35514 21.9099C8.37621 21.8873 8.39322 21.8736 8.39728 21.8647L15.0671 7.25031ZM18.9306 36.4941C17.8561 38.8484 15.0704 39.885 12.7114 38.8084C10.3523 37.7317 9.31014 34.9481 10.3846 32.5938C11.232 30.7371 13.1466 29.7001 15.07 29.8694L22.3156 13.9935C22.6724 13.2117 23.6053 12.8646 24.3887 13.2221C25.1721 13.5796 25.5211 14.5118 25.1643 15.2936L17.9187 31.1695C19.3069 32.5116 19.778 34.6374 18.9306 36.4941Z" fill="white"/>
</svg>
