<svg width="50" height="50" viewBox="0 0 50 50" fill="none" xmlns="http://www.w3.org/2000/svg">
<path id="Vector" d="M3.13354 9.3784H34.3713V3.12976C34.3713 1.87026 35.1328 0.727934 36.3042 0.239759C37.4756 -0.248416 38.813 0.0249623 39.7111 0.913441L49.0824 10.2864C49.6681 10.8722 50 11.6631 50 12.493C50 13.3229 49.6681 14.1137 49.0824 14.6995L39.7111 24.0725C38.813 24.9707 37.4756 25.2343 36.3042 24.7461C35.1328 24.258 34.3713 23.1254 34.3713 21.8562V15.627H3.13354C1.4057 15.627 0.00976181 14.2309 0.00976181 12.5027C0.00976181 10.7746 1.4057 9.3784 3.13354 9.3784ZM46.8665 34.373C48.5943 34.373 49.9902 35.7691 49.9902 37.4973C49.9902 39.2254 48.5943 40.6216 46.8665 40.6216H15.6287V46.8702C15.6287 48.1297 14.8672 49.2721 13.6958 49.7602C12.5244 50.2484 11.187 49.975 10.289 49.0866L0.91761 39.7136C0.331902 39.1278 0 38.3369 0 37.507C0 36.6772 0.331902 35.8863 0.91761 35.3005L10.289 25.9275C11.187 25.0293 12.5244 24.7657 13.6958 25.2539C14.8672 25.742 15.6287 26.8746 15.6287 28.1439V34.3925H46.8665V34.373Z" fill="white"/>
</svg>
