<?xml version="1.0" encoding="utf-8"?>
<!-- Generator: Adobe Illustrator 27.4.0, SVG Export Plug-In . SVG Version: 6.00 Build 0)  -->
<svg version="1.1" id="Camada_1" xmlns="http://www.w3.org/2000/svg" xmlns:xlink="http://www.w3.org/1999/xlink" x="0px" y="0px"
	 viewBox="0 0 500 500" style="enable-background:new 0 0 500 500;" xml:space="preserve">
<style type="text/css">
	.st0{display:none;}
	.st1{display:inline;fill:none;stroke:var(--default-white);stroke-width:38;stroke-miterlimit:10;}
	.st2{display:inline;fill:none;stroke:var(--default-black);stroke-width:38;stroke-miterlimit:10;}
	.st3{display:inline;}
	.st4{fill:#020203;}
	.st5{display:inline;fill:#020203;}
	.st6{font-family:'MyriadPro-Regular';}
	.st7{font-size:400px;}
</style>
<g id="Camada_1_00000074430579753933944780000004275055527071024315_" class="st0">
	<line class="st1" x1="79.4" y1="89.6" x2="428.8" y2="430.6"/>
	<line class="st2" x1="90.6" y1="77.7" x2="440" y2="418.7"/>
	<g class="st3">
		<path class="st4" d="M175,210.4h-16l4.1-11.6l-31.3-30.5L116,213.4c-14.4,5.9-24.5,20.1-24.5,36.6v89.2v29.7
			c0,11,8.8,19.8,19.8,19.8h19.8c11,0,19.8-8.9,19.8-19.8v-29.7h156L175,210.4z M150.9,289.6c-10.9,0-19.8-8.9-19.8-19.8
			S140,250,150.9,250s19.8,8.9,19.8,19.8S161.9,289.6,150.9,289.6z"/>
		<path class="st4" d="M177.6,159.4c3.6-5.2,9.7-8.5,16.3-8.5h112.2c8.4,0,15.9,5.3,18.7,13.2l16.2,46.2H229.8l174.7,170.4
			c2.5-3.3,4-7.4,4-11.9v-29.7V250c0-16.5-10.1-30.7-24.5-36.6l-21.8-62.2c-8.4-23.8-30.8-39.8-56.1-39.8H193.9
			c-17.5,0-33.7,7.7-44.8,20.3L177.6,159.4z M349.1,250c10.9,0,19.8,8.9,19.8,19.8s-8.9,19.8-19.8,19.8s-19.8-8.9-19.8-19.8
			S338.1,250,349.1,250z"/>
	</g>
	
		<rect x="245.6" y="4" transform="matrix(0.6984 -0.7157 0.7157 0.6984 -97.7566 264.3072)" class="st5" width="38.3" height="488.4"/>
</g>
<g id="Camada_2_00000161617888194567754820000014561121476481918350_">
	<g>
		<g>
			<polygon points="199.4,173.4 199.4,121.9 158.4,121.9 151.4,126.6 			"/>
			<polygon points="158.4,191.6 158.4,413.9 199.4,413.9 199.4,231.6 			"/>
			<polygon points="116.8,151.1 116.8,192 142.6,176.2 			"/>
		</g>
		<g>
			<path d="M313.9,285.2c2.1-0.2,4.2-0.3,6.4-0.3c14.3,0,25.9,4.1,34.6,12.4s13.1,19.1,13.1,32.6v2.8c0,1.8-0.1,3.5-0.2,5.2
				l33.9,33.1c4.7-10.4,7.1-22.2,7.1-35.3v-4.8c0-14.6-3.7-28.3-11.1-41.2c-7.4-12.9-17.3-22.6-29.6-29.1
				c10.4-5.5,18.8-13.5,25.2-24.1c6.4-10.6,9.5-21.9,9.5-33.9v-7c0-23.2-7.5-41.7-22.6-55.7s-35-21-59.9-21s-44.9,7-59.9,21
				c-15.1,14-22.6,32.6-22.6,55.7v7c0,3,0.2,6,0.6,9L313.9,285.2z M278.8,199.8c0-12.6,3.8-22.7,11.4-30.2
				c7.6-7.6,17.7-11.3,30.1-11.3s22.5,3.8,30.1,11.3s11.5,17.6,11.5,30v2.8c0,13-3.8,23.4-11.5,31.3c-7.6,7.9-17.7,11.9-30.1,11.9
				s-22.5-3.9-30.1-11.8s-11.4-18.2-11.4-31L278.8,199.8L278.8,199.8z"/>
			<path d="M343.9,372.7c-6.8,3.2-14.6,4.8-23.5,4.8c-14.3,0-25.9-4-34.6-12.1s-13.1-18.8-13.1-32.2v-3c0-8.4,1.7-15.8,5-22.1
				l-28.5-27.8c-2.3,3-4.4,6.1-6.4,9.6c-7.3,12.9-10.9,26.6-10.9,41.2v4.8c0,16.3,3.7,30.6,11,42.8s17.7,21.6,30.9,28.3
				c13.2,6.7,28.8,10,46.6,10c17.8,0,33.3-3.3,46.6-10c2.6-1.3,5.1-2.8,7.5-4.3L343.9,372.7z"/>
		</g>
		
			<rect x="256.2" y="-3.2" transform="matrix(0.6984 -0.7157 0.7157 0.6984 -95.3835 273.6393)" class="st4" width="41.7" height="506.4"/>
	</g>
</g>
<text transform="matrix(1 0 0 1 21.4466 378.5957)" class="st6 st7">-</text>
</svg>
