<?xml version="1.0" encoding="utf-8"?>
<!-- Generator: Adobe Illustrator 27.4.0, SVG Export Plug-In . SVG Version: 6.00 Build 0)  -->
<svg version="1.1" id="Camada_1" xmlns="http://www.w3.org/2000/svg" xmlns:xlink="http://www.w3.org/1999/xlink" x="0px" y="0px"
	 viewBox="0 0 500 500" style="enable-background:new 0 0 500 500;" xml:space="preserve">
<style type="text/css">
	.st0{display:none;fill:#020203;stroke:var(--default-white);stroke-width:38;stroke-miterlimit:10;}
	.st1{display:none;fill:#020203;stroke:var(--default-black);stroke-width:38;stroke-miterlimit:10;}
	.st2{fill:#020203;}
</style>
<line class="st0" x1="79.42" y1="89.59" x2="428.81" y2="430.58"/>
<line class="st1" x1="90.64" y1="77.66" x2="440.03" y2="418.66"/>
<g>
	<path class="st2" d="M175.01,210.38h-15.96l4.06-11.61l-31.29-30.53l-15.8,45.11C101.65,219.29,91.5,233.47,91.5,250v89.16v29.72
		c0,10.96,8.85,19.81,19.81,19.81h19.81c10.96,0,19.81-8.85,19.81-19.81v-29.72h156.05L175.01,210.38z M150.94,289.62
		c-10.94,0-19.81-8.87-19.81-19.81S140,250,150.94,250s19.81,8.87,19.81,19.81S161.88,289.62,150.94,289.62z"/>
	<path class="st2" d="M177.65,159.45c3.64-5.23,9.66-8.51,16.26-8.51h112.19c8.42,0,15.91,5.32,18.7,13.25l16.16,46.19H229.83
		L404.49,380.8c2.51-3.32,4.01-7.44,4.01-11.93v-29.72V250c0-16.53-10.15-30.71-24.52-36.65l-21.79-62.22
		c-8.36-23.84-30.83-39.81-56.09-39.81H193.91c-17.52,0-33.69,7.68-44.75,20.34L177.65,159.45z M349.06,250
		c10.94,0,19.81,8.87,19.81,19.81s-8.87,19.81-19.81,19.81s-19.81-8.87-19.81-19.81S338.12,250,349.06,250z"/>
</g>
<rect x="20.56" y="229" transform="matrix(0.7157 0.6984 -0.6984 0.7157 248.5594 -114.3474)" class="st2" width="488.36" height="38.29"/>
</svg>
